<svg id="svg" version="1.1" xmlns="http://www.w3.org/2000/svg" xmlns:xlink="http://www.w3.org/1999/xlink" width="400" height="400" viewBox="0, 0, 400,400"><g id="svgg"><path id="path0" d="M179.000 0.466 C 175.920 0.657,173.040 0.978,172.600 1.177 C 172.160 1.377,170.374 1.654,168.631 1.793 C 166.888 1.932,165.145 2.216,164.757 2.423 C 164.370 2.630,163.411 2.800,162.626 2.800 C 161.842 2.800,161.200 2.962,161.200 3.159 C 161.200 3.357,159.940 3.645,158.400 3.800 C 156.860 3.955,155.600 4.220,155.600 4.389 C 155.600 4.558,154.477 4.824,153.104 4.979 C 151.731 5.134,150.426 5.405,150.204 5.580 C 149.982 5.756,148.945 6.023,147.900 6.174 C 146.855 6.325,146.000 6.593,146.000 6.769 C 146.000 6.945,145.069 7.199,143.930 7.334 C 142.792 7.469,141.757 7.742,141.630 7.940 C 141.504 8.139,140.636 8.430,139.702 8.586 C 138.768 8.742,137.903 9.034,137.778 9.235 C 137.654 9.436,137.203 9.600,136.776 9.600 C 136.349 9.600,136.000 9.760,136.000 9.955 C 136.000 10.150,135.190 10.431,134.200 10.579 C 133.210 10.728,132.400 11.001,132.400 11.187 C 132.400 11.373,131.500 11.649,130.400 11.800 C 129.300 11.951,128.400 12.230,128.400 12.419 C 128.400 12.609,127.770 12.882,127.000 13.026 C 126.230 13.171,125.600 13.433,125.600 13.609 C 125.600 13.786,124.880 14.051,124.000 14.200 C 123.120 14.349,122.400 14.620,122.400 14.803 C 122.400 14.987,121.860 15.255,121.200 15.400 C 120.540 15.545,120.000 15.829,120.000 16.032 C 120.000 16.234,119.550 16.400,119.000 16.400 C 118.450 16.400,118.000 16.566,118.000 16.768 C 118.000 16.971,117.460 17.255,116.800 17.400 C 116.140 17.545,115.600 17.815,115.600 18.000 C 115.600 18.185,115.060 18.455,114.400 18.600 C 113.740 18.745,113.200 19.009,113.200 19.187 C 113.200 19.365,112.570 19.629,111.800 19.774 C 111.030 19.918,110.400 20.194,110.400 20.386 C 110.400 20.579,109.860 20.855,109.200 21.000 C 108.540 21.145,108.000 21.429,108.000 21.632 C 108.000 21.834,107.730 22.000,107.400 22.000 C 107.070 22.000,106.800 22.166,106.800 22.368 C 106.800 22.571,106.260 22.855,105.600 23.000 C 104.940 23.145,104.400 23.415,104.400 23.600 C 104.400 23.785,103.860 24.055,103.200 24.200 C 102.540 24.345,102.000 24.626,102.000 24.824 C 102.000 25.022,101.550 25.298,101.000 25.436 C 100.450 25.574,100.000 25.833,100.000 26.012 C 100.000 26.190,99.460 26.455,98.800 26.600 C 98.140 26.745,97.600 27.026,97.600 27.224 C 97.600 27.422,97.150 27.698,96.600 27.836 C 96.050 27.974,95.600 28.247,95.600 28.443 C 95.600 28.640,95.349 28.800,95.043 28.800 C 94.736 28.800,94.382 29.070,94.255 29.400 C 94.129 29.730,93.679 30.000,93.255 30.000 C 92.832 30.000,92.382 30.270,92.255 30.600 C 92.129 30.930,91.749 31.200,91.413 31.200 C 91.076 31.200,90.800 31.377,90.800 31.592 C 90.800 31.808,90.363 32.094,89.829 32.228 C 89.295 32.363,88.761 32.726,88.641 33.036 C 88.522 33.346,88.149 33.600,87.813 33.600 C 87.476 33.600,87.200 33.739,87.200 33.909 C 87.200 34.079,86.570 34.557,85.800 34.972 C 85.030 35.387,84.400 35.878,84.400 36.063 C 84.400 36.248,84.124 36.400,83.787 36.400 C 83.451 36.400,83.074 36.663,82.950 36.985 C 82.827 37.306,82.338 37.691,81.863 37.840 C 81.388 37.989,80.604 38.536,80.119 39.056 C 79.635 39.575,79.076 40.000,78.878 40.000 C 78.532 40.000,77.738 40.645,74.911 43.224 C 74.202 43.871,73.445 44.400,73.230 44.400 C 73.015 44.400,72.227 45.030,71.479 45.800 C 70.731 46.570,70.006 47.200,69.869 47.200 C 69.731 47.200,68.612 48.190,67.382 49.400 C 66.153 50.610,65.001 51.600,64.823 51.600 C 64.399 51.600,51.600 64.399,51.600 64.823 C 51.600 65.001,50.610 66.153,49.400 67.382 C 48.190 68.612,47.200 69.731,47.200 69.869 C 47.200 70.006,46.570 70.731,45.800 71.479 C 45.030 72.227,44.400 73.015,44.400 73.230 C 44.400 73.445,43.871 74.202,43.224 74.911 C 40.645 77.738,40.000 78.532,40.000 78.878 C 40.000 79.076,39.575 79.635,39.056 80.119 C 38.536 80.604,37.989 81.388,37.840 81.863 C 37.691 82.338,37.306 82.827,36.985 82.950 C 36.663 83.074,36.400 83.451,36.400 83.787 C 36.400 84.124,36.248 84.400,36.063 84.400 C 35.878 84.400,35.387 85.030,34.972 85.800 C 34.557 86.570,34.079 87.200,33.909 87.200 C 33.739 87.200,33.600 87.476,33.600 87.813 C 33.600 88.149,33.346 88.522,33.036 88.641 C 32.726 88.761,32.363 89.295,32.228 89.829 C 32.094 90.363,31.808 90.800,31.592 90.800 C 31.377 90.800,31.200 91.076,31.200 91.413 C 31.200 91.749,30.930 92.129,30.600 92.255 C 30.270 92.382,30.000 92.832,30.000 93.255 C 30.000 93.679,29.730 94.129,29.400 94.255 C 29.070 94.382,28.800 94.736,28.800 95.043 C 28.800 95.349,28.640 95.600,28.443 95.600 C 28.247 95.600,27.974 96.050,27.836 96.600 C 27.698 97.150,27.422 97.600,27.224 97.600 C 27.026 97.600,26.745 98.140,26.600 98.800 C 26.455 99.460,26.190 100.000,26.012 100.000 C 25.833 100.000,25.574 100.450,25.436 101.000 C 25.298 101.550,25.022 102.000,24.824 102.000 C 24.626 102.000,24.345 102.540,24.200 103.200 C 24.055 103.860,23.785 104.400,23.600 104.400 C 23.415 104.400,23.145 104.940,23.000 105.600 C 22.855 106.260,22.571 106.800,22.368 106.800 C 22.166 106.800,22.000 107.070,22.000 107.400 C 22.000 107.730,21.834 108.000,21.632 108.000 C 21.429 108.000,21.145 108.540,21.000 109.200 C 20.855 109.860,20.579 110.400,20.386 110.400 C 20.194 110.400,19.918 111.030,19.774 111.800 C 19.629 112.570,19.365 113.200,19.187 113.200 C 19.009 113.200,18.745 113.740,18.600 114.400 C 18.455 115.060,18.185 115.600,18.000 115.600 C 17.815 115.600,17.545 116.140,17.400 116.800 C 17.255 117.460,16.971 118.000,16.768 118.000 C 16.566 118.000,16.400 118.450,16.400 119.000 C 16.400 119.550,16.234 120.000,16.032 120.000 C 15.829 120.000,15.545 120.540,15.400 121.200 C 15.255 121.860,14.987 122.400,14.803 122.400 C 14.620 122.400,14.349 123.120,14.200 124.000 C 14.051 124.880,13.786 125.600,13.609 125.600 C 13.433 125.600,13.171 126.230,13.026 127.000 C 12.882 127.770,12.609 128.400,12.419 128.400 C 12.230 128.400,11.951 129.300,11.800 130.400 C 11.649 131.500,11.373 132.400,11.187 132.400 C 11.001 132.400,10.728 133.210,10.579 134.200 C 10.431 135.190,10.150 136.000,9.955 136.000 C 9.760 136.000,9.600 136.349,9.600 136.776 C 9.600 137.203,9.436 137.654,9.235 137.778 C 9.034 137.903,8.742 138.768,8.586 139.702 C 8.430 140.636,8.139 141.504,7.940 141.630 C 7.742 141.757,7.469 142.792,7.334 143.930 C 7.199 145.069,6.945 146.000,6.769 146.000 C 6.593 146.000,6.325 146.855,6.174 147.900 C 6.023 148.945,5.756 149.982,5.580 150.204 C 5.405 150.426,5.134 151.731,4.979 153.104 C 4.824 154.477,4.558 155.600,4.389 155.600 C 4.220 155.600,3.955 156.860,3.800 158.400 C 3.645 159.940,3.357 161.200,3.159 161.200 C 2.962 161.200,2.800 161.842,2.800 162.626 C 2.800 163.411,2.630 164.370,2.423 164.757 C 2.216 165.145,1.932 166.888,1.793 168.631 C 1.654 170.374,1.382 172.160,1.188 172.600 C -0.345 176.086,-0.345 223.914,1.188 227.400 C 1.382 227.840,1.654 229.626,1.793 231.369 C 1.932 233.112,2.216 234.855,2.423 235.243 C 2.630 235.630,2.800 236.589,2.800 237.374 C 2.800 238.158,2.962 238.800,3.159 238.800 C 3.357 238.800,3.645 240.060,3.800 241.600 C 3.955 243.140,4.220 244.400,4.389 244.400 C 4.558 244.400,4.824 245.523,4.979 246.896 C 5.134 248.269,5.405 249.574,5.580 249.796 C 5.756 250.018,6.023 251.055,6.174 252.100 C 6.325 253.145,6.593 254.000,6.769 254.000 C 6.945 254.000,7.199 254.931,7.334 256.070 C 7.469 257.208,7.742 258.243,7.940 258.370 C 8.139 258.496,8.430 259.364,8.586 260.298 C 8.742 261.232,9.034 262.097,9.235 262.222 C 9.436 262.346,9.600 262.797,9.600 263.224 C 9.600 263.651,9.760 264.000,9.955 264.000 C 10.150 264.000,10.430 264.806,10.578 265.791 C 10.725 266.776,11.005 267.680,11.200 267.800 C 11.395 267.920,11.675 268.824,11.822 269.809 C 11.970 270.794,12.236 271.600,12.414 271.600 C 12.591 271.600,12.858 272.152,13.006 272.827 C 13.154 273.502,13.527 274.537,13.835 275.127 C 14.143 275.717,14.396 276.515,14.398 276.900 C 14.399 277.285,14.566 277.600,14.768 277.600 C 14.971 277.600,15.255 278.140,15.400 278.800 C 15.545 279.460,15.829 280.000,16.032 280.000 C 16.234 280.000,16.400 280.450,16.400 281.000 C 16.400 281.550,16.566 282.000,16.768 282.000 C 16.971 282.000,17.255 282.540,17.400 283.200 C 17.545 283.860,17.815 284.400,18.000 284.400 C 18.185 284.400,18.455 284.940,18.600 285.600 C 18.745 286.260,19.009 286.800,19.187 286.800 C 19.365 286.800,19.629 287.430,19.774 288.200 C 19.918 288.970,20.194 289.600,20.386 289.600 C 20.579 289.600,20.855 290.140,21.000 290.800 C 21.145 291.460,21.429 292.000,21.632 292.000 C 21.834 292.000,22.000 292.270,22.000 292.600 C 22.000 292.930,22.166 293.200,22.368 293.200 C 22.571 293.200,22.855 293.740,23.000 294.400 C 23.145 295.060,23.415 295.600,23.600 295.600 C 23.785 295.600,24.055 296.140,24.200 296.800 C 24.345 297.460,24.626 298.000,24.824 298.000 C 25.022 298.000,25.298 298.450,25.436 299.000 C 25.574 299.550,25.833 300.000,26.012 300.000 C 26.190 300.000,26.455 300.540,26.600 301.200 C 26.745 301.860,27.026 302.400,27.224 302.400 C 27.422 302.400,27.698 302.850,27.836 303.400 C 27.974 303.950,28.247 304.400,28.443 304.400 C 28.640 304.400,28.800 304.651,28.800 304.957 C 28.800 305.264,29.070 305.618,29.400 305.745 C 29.730 305.871,30.000 306.321,30.000 306.745 C 30.000 307.168,30.270 307.618,30.600 307.745 C 30.930 307.871,31.200 308.251,31.200 308.587 C 31.200 308.924,31.377 309.200,31.592 309.200 C 31.808 309.200,32.094 309.637,32.228 310.171 C 32.363 310.705,32.726 311.239,33.036 311.359 C 33.346 311.478,33.600 311.773,33.600 312.014 C 33.600 312.489,35.607 315.314,36.100 315.533 C 36.265 315.607,36.400 315.927,36.400 316.246 C 36.400 316.564,36.663 316.926,36.985 317.050 C 37.306 317.173,37.691 317.662,37.840 318.137 C 37.989 318.612,38.536 319.396,39.056 319.881 C 39.575 320.365,40.000 320.924,40.000 321.122 C 40.000 321.468,40.645 322.262,43.224 325.089 C 43.871 325.798,44.400 326.555,44.400 326.770 C 44.400 326.985,45.030 327.773,45.800 328.521 C 46.570 329.269,47.200 329.994,47.200 330.131 C 47.200 330.269,48.190 331.388,49.400 332.618 C 50.610 333.847,51.600 335.005,51.600 335.192 C 51.600 335.623,64.393 348.400,64.825 348.400 C 65.002 348.400,66.153 349.390,67.382 350.600 C 68.612 351.810,69.731 352.800,69.869 352.800 C 70.006 352.800,70.731 353.430,71.479 354.200 C 72.227 354.970,73.034 355.600,73.272 355.600 C 73.510 355.600,74.267 356.194,74.953 356.920 C 75.639 357.646,76.515 358.361,76.900 358.508 C 77.285 358.655,77.600 358.948,77.600 359.160 C 77.600 359.373,77.988 359.669,78.462 359.820 C 78.937 359.970,79.702 360.497,80.162 360.991 C 80.623 361.485,81.405 362.016,81.900 362.171 C 82.395 362.327,82.800 362.627,82.800 362.840 C 82.800 363.052,83.115 363.342,83.500 363.485 C 83.885 363.628,84.470 364.046,84.800 364.415 C 85.130 364.784,85.805 365.213,86.300 365.370 C 86.795 365.526,87.200 365.822,87.200 366.027 C 87.200 366.232,87.476 366.400,87.813 366.400 C 88.149 366.400,88.522 366.654,88.641 366.964 C 88.761 367.274,89.295 367.637,89.829 367.772 C 90.363 367.906,90.800 368.192,90.800 368.408 C 90.800 368.623,91.076 368.800,91.413 368.800 C 91.749 368.800,92.129 369.070,92.255 369.400 C 92.382 369.730,92.832 370.000,93.255 370.000 C 93.679 370.000,94.129 370.270,94.255 370.600 C 94.382 370.930,94.736 371.200,95.043 371.200 C 95.349 371.200,95.600 371.360,95.600 371.557 C 95.600 371.753,96.050 372.026,96.600 372.164 C 97.150 372.302,97.600 372.578,97.600 372.776 C 97.600 372.974,98.140 373.255,98.800 373.400 C 99.460 373.545,100.000 373.810,100.000 373.988 C 100.000 374.167,100.450 374.426,101.000 374.564 C 101.550 374.702,102.000 374.978,102.000 375.176 C 102.000 375.374,102.540 375.655,103.200 375.800 C 103.860 375.945,104.400 376.215,104.400 376.400 C 104.400 376.585,104.940 376.855,105.600 377.000 C 106.260 377.145,106.800 377.429,106.800 377.632 C 106.800 377.834,107.070 378.000,107.400 378.000 C 107.730 378.000,108.000 378.166,108.000 378.368 C 108.000 378.571,108.540 378.855,109.200 379.000 C 109.860 379.145,110.400 379.421,110.400 379.614 C 110.400 379.806,111.030 380.082,111.800 380.226 C 112.570 380.371,113.200 380.635,113.200 380.813 C 113.200 380.991,113.740 381.255,114.400 381.400 C 115.060 381.545,115.600 381.829,115.600 382.032 C 115.600 382.234,115.947 382.400,116.371 382.400 C 116.796 382.400,117.413 382.670,117.743 383.000 C 118.073 383.330,118.611 383.600,118.939 383.600 C 119.562 383.600,122.047 384.800,122.407 385.274 C 122.617 385.550,124.320 385.901,125.800 385.973 C 126.466 386.006,126.499 386.077,126.000 386.400 C 125.511 386.716,125.567 386.798,126.300 386.844 C 127.892 386.943,128.023 386.990,128.408 387.600 C 128.660 387.998,128.790 388.032,128.794 387.700 C 128.797 387.425,128.991 387.200,129.224 387.200 C 129.457 387.200,129.548 387.360,129.428 387.555 C 129.307 387.751,130.061 388.038,131.104 388.194 C 132.147 388.351,133.111 388.657,133.246 388.876 C 133.382 389.095,134.192 389.366,135.046 389.479 C 135.901 389.591,136.660 389.845,136.733 390.042 C 136.807 390.239,137.347 390.403,137.933 390.406 C 138.675 390.410,138.836 390.516,138.463 390.752 C 138.070 391.001,138.201 391.145,138.949 391.288 C 139.512 391.396,140.054 391.285,140.154 391.042 C 140.272 390.758,140.348 390.778,140.368 391.100 C 140.387 391.390,140.947 391.603,141.700 391.606 C 142.686 391.611,142.855 391.706,142.400 392.000 C 141.900 392.323,141.933 392.396,142.600 392.436 C 143.040 392.463,143.670 392.525,144.000 392.574 C 144.330 392.623,145.196 392.694,145.924 392.732 C 146.690 392.771,147.143 392.968,147.000 393.200 C 146.756 393.594,147.291 393.764,148.332 393.622 C 148.625 393.583,149.322 393.850,149.881 394.217 C 150.441 394.583,150.776 394.684,150.626 394.441 C 150.471 394.192,150.623 394.000,150.976 394.000 C 151.319 394.000,151.600 394.162,151.600 394.359 C 151.600 394.557,152.860 394.845,154.400 395.000 C 155.940 395.155,157.200 395.420,157.200 395.589 C 157.200 395.758,158.032 395.990,159.049 396.104 C 160.067 396.219,161.054 396.557,161.243 396.856 C 161.496 397.256,161.589 397.267,161.594 396.900 C 161.602 396.268,163.080 396.239,163.289 396.868 C 163.376 397.127,164.104 397.311,164.923 397.280 C 165.735 397.249,166.400 397.378,166.400 397.566 C 166.400 398.101,168.311 398.329,168.789 397.851 C 169.097 397.543,169.444 397.560,170.005 397.910 C 170.436 398.180,171.702 398.400,172.818 398.400 C 173.934 398.400,174.747 398.562,174.625 398.760 C 174.361 399.187,177.864 399.531,178.496 399.140 C 178.737 398.992,179.398 399.054,179.967 399.278 C 182.785 400.390,225.901 399.970,227.400 398.816 C 227.620 398.646,229.308 398.387,231.152 398.240 C 232.995 398.093,234.829 397.799,235.226 397.586 C 235.623 397.374,236.589 397.200,237.374 397.200 C 238.158 397.200,238.800 397.038,238.800 396.841 C 238.800 396.643,240.060 396.355,241.600 396.200 C 243.140 396.045,244.400 395.780,244.400 395.611 C 244.400 395.442,245.523 395.176,246.896 395.021 C 248.269 394.866,249.574 394.595,249.796 394.420 C 250.018 394.244,251.055 393.977,252.100 393.826 C 253.145 393.675,254.000 393.407,254.000 393.231 C 254.000 393.055,254.931 392.801,256.070 392.666 C 257.208 392.531,258.243 392.258,258.370 392.060 C 258.496 391.861,259.364 391.570,260.298 391.414 C 261.232 391.258,262.097 390.966,262.222 390.765 C 262.346 390.564,262.797 390.400,263.224 390.400 C 263.651 390.400,264.000 390.237,264.000 390.038 C 264.000 389.838,264.900 389.551,266.000 389.400 C 267.100 389.249,268.000 388.973,268.000 388.787 C 268.000 388.601,268.810 388.328,269.800 388.179 C 270.790 388.031,271.600 387.764,271.600 387.586 C 271.600 387.409,272.152 387.142,272.827 386.994 C 273.502 386.846,274.537 386.473,275.127 386.165 C 275.717 385.857,276.515 385.604,276.900 385.602 C 277.285 385.601,277.600 385.434,277.600 385.232 C 277.600 385.029,278.140 384.745,278.800 384.600 C 279.460 384.455,280.000 384.171,280.000 383.968 C 280.000 383.766,280.450 383.600,281.000 383.600 C 281.550 383.600,282.000 383.434,282.000 383.232 C 282.000 383.029,282.540 382.745,283.200 382.600 C 283.860 382.455,284.400 382.185,284.400 382.000 C 284.400 381.815,284.940 381.545,285.600 381.400 C 286.260 381.255,286.800 380.991,286.800 380.813 C 286.800 380.635,287.430 380.371,288.200 380.226 C 288.970 380.082,289.600 379.806,289.600 379.614 C 289.600 379.421,290.140 379.145,290.800 379.000 C 291.460 378.855,292.000 378.571,292.000 378.368 C 292.000 378.166,292.270 378.000,292.600 378.000 C 292.930 378.000,293.200 377.834,293.200 377.632 C 293.200 377.429,293.740 377.145,294.400 377.000 C 295.060 376.855,295.600 376.585,295.600 376.400 C 295.600 376.215,296.140 375.945,296.800 375.800 C 297.460 375.655,298.000 375.374,298.000 375.176 C 298.000 374.978,298.450 374.702,299.000 374.564 C 299.550 374.426,300.000 374.167,300.000 373.988 C 300.000 373.810,300.540 373.545,301.200 373.400 C 301.860 373.255,302.400 372.974,302.400 372.776 C 302.400 372.578,302.850 372.302,303.400 372.164 C 303.950 372.026,304.400 371.753,304.400 371.557 C 304.400 371.360,304.651 371.200,304.957 371.200 C 305.264 371.200,305.618 370.930,305.745 370.600 C 305.871 370.270,306.321 370.000,306.745 370.000 C 307.168 370.000,307.618 369.730,307.745 369.400 C 307.871 369.070,308.251 368.800,308.587 368.800 C 308.924 368.800,309.200 368.623,309.200 368.408 C 309.200 368.192,309.650 367.902,310.200 367.764 C 310.750 367.626,311.200 367.348,311.200 367.147 C 311.200 366.945,311.605 366.605,312.100 366.391 C 313.348 365.851,314.479 365.113,315.194 364.372 C 315.527 364.027,316.115 363.628,316.500 363.485 C 316.885 363.342,317.200 363.052,317.200 362.840 C 317.200 362.627,317.605 362.327,318.100 362.171 C 318.595 362.016,319.377 361.485,319.838 360.991 C 320.298 360.497,321.063 359.970,321.538 359.820 C 322.012 359.669,322.400 359.373,322.400 359.160 C 322.400 358.948,322.715 358.655,323.100 358.508 C 323.485 358.361,324.361 357.646,325.047 356.920 C 325.733 356.194,326.490 355.600,326.728 355.600 C 326.966 355.600,327.773 354.970,328.521 354.200 C 329.269 353.430,329.994 352.800,330.131 352.800 C 330.269 352.800,331.388 351.810,332.618 350.600 C 333.847 349.390,335.004 348.400,335.190 348.400 C 335.629 348.400,348.400 335.629,348.400 335.190 C 348.400 335.004,349.390 333.847,350.600 332.618 C 351.810 331.388,352.800 330.269,352.800 330.131 C 352.800 329.994,353.430 329.269,354.200 328.521 C 354.970 327.773,355.600 326.966,355.600 326.728 C 355.600 326.490,356.230 325.700,357.000 324.974 C 357.770 324.248,358.400 323.456,358.400 323.214 C 358.400 322.973,358.663 322.674,358.985 322.550 C 359.306 322.427,359.687 321.955,359.832 321.501 C 359.976 321.047,360.497 320.298,360.991 319.838 C 361.485 319.377,362.011 318.612,362.160 318.137 C 362.309 317.662,362.694 317.173,363.015 317.050 C 363.337 316.926,363.600 316.616,363.600 316.359 C 363.600 316.103,363.915 315.600,364.300 315.241 C 365.100 314.495,365.828 313.402,366.391 312.100 C 366.605 311.605,366.945 311.200,367.147 311.200 C 367.348 311.200,367.626 310.750,367.764 310.200 C 367.902 309.650,368.192 309.200,368.408 309.200 C 368.623 309.200,368.800 308.924,368.800 308.587 C 368.800 308.251,369.070 307.871,369.400 307.745 C 369.730 307.618,370.000 307.168,370.000 306.745 C 370.000 306.321,370.270 305.871,370.600 305.745 C 370.930 305.618,371.200 305.264,371.200 304.957 C 371.200 304.651,371.360 304.400,371.557 304.400 C 371.753 304.400,372.026 303.950,372.164 303.400 C 372.302 302.850,372.578 302.400,372.776 302.400 C 372.974 302.400,373.255 301.860,373.400 301.200 C 373.545 300.540,373.810 300.000,373.988 300.000 C 374.167 300.000,374.426 299.550,374.564 299.000 C 374.702 298.450,374.978 298.000,375.176 298.000 C 375.374 298.000,375.655 297.460,375.800 296.800 C 375.945 296.140,376.215 295.600,376.400 295.600 C 376.585 295.600,376.855 295.060,377.000 294.400 C 377.145 293.740,377.429 293.200,377.632 293.200 C 377.834 293.200,378.000 292.930,378.000 292.600 C 378.000 292.270,378.166 292.000,378.368 292.000 C 378.571 292.000,378.855 291.460,379.000 290.800 C 379.145 290.140,379.421 289.600,379.614 289.600 C 379.806 289.600,380.082 288.970,380.226 288.200 C 380.371 287.430,380.635 286.800,380.813 286.800 C 380.991 286.800,381.255 286.260,381.400 285.600 C 381.545 284.940,381.815 284.400,382.000 284.400 C 382.185 284.400,382.455 283.860,382.600 283.200 C 382.745 282.540,383.029 282.000,383.232 282.000 C 383.434 282.000,383.600 281.550,383.600 281.000 C 383.600 280.450,383.766 280.000,383.968 280.000 C 384.171 280.000,384.455 279.460,384.600 278.800 C 384.745 278.140,385.029 277.600,385.232 277.600 C 385.434 277.600,385.601 277.285,385.602 276.900 C 385.604 276.515,385.857 275.717,386.165 275.127 C 386.473 274.537,386.846 273.502,386.994 272.827 C 387.142 272.152,387.409 271.600,387.586 271.600 C 387.764 271.600,388.031 270.790,388.179 269.800 C 388.328 268.810,388.601 268.000,388.787 268.000 C 388.973 268.000,389.249 267.100,389.400 266.000 C 389.551 264.900,389.838 264.000,390.038 264.000 C 390.237 264.000,390.400 263.651,390.400 263.224 C 390.400 262.797,390.564 262.346,390.765 262.222 C 390.966 262.097,391.258 261.232,391.414 260.298 C 391.570 259.364,391.861 258.496,392.060 258.370 C 392.258 258.243,392.531 257.208,392.666 256.070 C 392.801 254.931,393.055 254.000,393.231 254.000 C 393.407 254.000,393.675 253.145,393.826 252.100 C 393.977 251.055,394.244 250.018,394.420 249.796 C 394.595 249.574,394.866 248.269,395.021 246.896 C 395.176 245.523,395.442 244.400,395.611 244.400 C 395.780 244.400,396.045 243.140,396.200 241.600 C 396.355 240.060,396.643 238.800,396.841 238.800 C 397.038 238.800,397.200 238.158,397.200 237.374 C 397.200 236.589,397.370 235.630,397.577 235.243 C 397.784 234.855,398.068 233.112,398.207 231.369 C 398.346 229.626,398.618 227.840,398.812 227.400 C 400.345 223.914,400.345 176.086,398.812 172.600 C 398.618 172.160,398.346 170.374,398.207 168.631 C 398.068 166.888,397.784 165.145,397.577 164.757 C 397.370 164.370,397.200 163.411,397.200 162.626 C 397.200 161.842,397.038 161.200,396.841 161.200 C 396.643 161.200,396.355 159.940,396.200 158.400 C 396.045 156.860,395.780 155.600,395.611 155.600 C 395.442 155.600,395.176 154.477,395.021 153.104 C 394.866 151.731,394.595 150.426,394.420 150.204 C 394.244 149.982,393.977 148.945,393.826 147.900 C 393.675 146.855,393.407 146.000,393.231 146.000 C 393.055 146.000,392.801 145.069,392.666 143.930 C 392.531 142.792,392.258 141.757,392.060 141.630 C 391.861 141.504,391.570 140.636,391.414 139.702 C 391.258 138.768,390.966 137.903,390.765 137.778 C 390.564 137.654,390.400 137.203,390.400 136.776 C 390.400 136.349,390.240 136.000,390.045 136.000 C 389.850 136.000,389.569 135.190,389.421 134.200 C 389.272 133.210,388.999 132.400,388.813 132.400 C 388.627 132.400,388.351 131.500,388.200 130.400 C 388.049 129.300,387.770 128.400,387.581 128.400 C 387.391 128.400,387.118 127.770,386.974 127.000 C 386.829 126.230,386.567 125.600,386.391 125.600 C 386.214 125.600,385.949 124.880,385.800 124.000 C 385.651 123.120,385.380 122.400,385.197 122.400 C 385.013 122.400,384.745 121.860,384.600 121.200 C 384.455 120.540,384.171 120.000,383.968 120.000 C 383.766 120.000,383.600 119.550,383.600 119.000 C 383.600 118.450,383.434 118.000,383.232 118.000 C 383.029 118.000,382.745 117.460,382.600 116.800 C 382.455 116.140,382.185 115.600,382.000 115.600 C 381.815 115.600,381.545 115.060,381.400 114.400 C 381.255 113.740,380.991 113.200,380.813 113.200 C 380.635 113.200,380.371 112.570,380.226 111.800 C 380.082 111.030,379.806 110.400,379.614 110.400 C 379.421 110.400,379.145 109.860,379.000 109.200 C 378.855 108.540,378.571 108.000,378.368 108.000 C 378.166 108.000,378.000 107.730,378.000 107.400 C 378.000 107.070,377.834 106.800,377.632 106.800 C 377.429 106.800,377.145 106.260,377.000 105.600 C 376.855 104.940,376.585 104.400,376.400 104.400 C 376.215 104.400,375.945 103.860,375.800 103.200 C 375.655 102.540,375.374 102.000,375.176 102.000 C 374.978 102.000,374.702 101.550,374.564 101.000 C 374.426 100.450,374.167 100.000,373.988 100.000 C 373.810 100.000,373.545 99.460,373.400 98.800 C 373.255 98.140,372.974 97.600,372.776 97.600 C 372.578 97.600,372.302 97.150,372.164 96.600 C 372.026 96.050,371.753 95.600,371.557 95.600 C 371.360 95.600,371.200 95.349,371.200 95.043 C 371.200 94.736,370.930 94.382,370.600 94.255 C 370.270 94.129,370.000 93.679,370.000 93.255 C 370.000 92.832,369.730 92.382,369.400 92.255 C 369.070 92.129,368.800 91.749,368.800 91.413 C 368.800 91.076,368.623 90.800,368.408 90.800 C 368.192 90.800,367.906 90.363,367.772 89.829 C 367.637 89.295,367.274 88.761,366.964 88.641 C 366.654 88.522,366.400 88.149,366.400 87.813 C 366.400 87.476,366.232 87.200,366.027 87.200 C 365.822 87.200,365.526 86.795,365.370 86.300 C 365.213 85.805,364.751 85.109,364.343 84.753 C 363.934 84.397,363.600 83.897,363.600 83.641 C 363.600 83.384,363.337 83.074,363.015 82.950 C 362.694 82.827,362.309 82.338,362.160 81.863 C 362.011 81.388,361.485 80.623,360.991 80.162 C 360.497 79.702,359.976 78.953,359.832 78.499 C 359.687 78.045,359.306 77.573,358.985 77.450 C 358.663 77.326,358.400 77.027,358.400 76.786 C 358.400 76.544,357.770 75.752,357.000 75.026 C 356.230 74.300,355.600 73.510,355.600 73.272 C 355.600 73.034,354.970 72.227,354.200 71.479 C 353.430 70.731,352.800 70.006,352.800 69.869 C 352.800 69.731,351.810 68.612,350.600 67.382 C 349.390 66.153,348.400 65.002,348.400 64.825 C 348.400 64.393,335.623 51.600,335.192 51.600 C 335.005 51.600,333.847 50.610,332.618 49.400 C 331.388 48.190,330.269 47.200,330.131 47.200 C 329.994 47.200,329.269 46.570,328.521 45.800 C 327.773 45.030,326.985 44.400,326.770 44.400 C 326.555 44.400,325.798 43.871,325.089 43.224 C 322.262 40.645,321.468 40.000,321.122 40.000 C 320.924 40.000,320.365 39.575,319.881 39.056 C 319.396 38.536,318.612 37.989,318.137 37.840 C 317.662 37.691,317.173 37.306,317.050 36.985 C 316.926 36.663,316.564 36.400,316.246 36.400 C 315.927 36.400,315.607 36.265,315.533 36.100 C 315.314 35.607,312.489 33.600,312.014 33.600 C 311.773 33.600,311.478 33.346,311.359 33.036 C 311.239 32.726,310.705 32.363,310.171 32.228 C 309.637 32.094,309.200 31.808,309.200 31.592 C 309.200 31.377,308.924 31.200,308.587 31.200 C 308.251 31.200,307.871 30.930,307.745 30.600 C 307.618 30.270,307.168 30.000,306.745 30.000 C 306.321 30.000,305.871 29.730,305.745 29.400 C 305.618 29.070,305.264 28.800,304.957 28.800 C 304.651 28.800,304.400 28.640,304.400 28.443 C 304.400 28.247,303.950 27.974,303.400 27.836 C 302.850 27.698,302.400 27.422,302.400 27.224 C 302.400 27.026,301.860 26.745,301.200 26.600 C 300.540 26.455,300.000 26.190,300.000 26.012 C 300.000 25.833,299.550 25.574,299.000 25.436 C 298.450 25.298,298.000 25.022,298.000 24.824 C 298.000 24.626,297.460 24.345,296.800 24.200 C 296.140 24.055,295.600 23.785,295.600 23.600 C 295.600 23.415,295.060 23.145,294.400 23.000 C 293.740 22.855,293.200 22.571,293.200 22.368 C 293.200 22.166,292.930 22.000,292.600 22.000 C 292.270 22.000,292.000 21.834,292.000 21.632 C 292.000 21.429,291.460 21.145,290.800 21.000 C 290.140 20.855,289.600 20.579,289.600 20.386 C 289.600 20.194,288.970 19.918,288.200 19.774 C 287.430 19.629,286.800 19.365,286.800 19.187 C 286.800 19.009,286.260 18.745,285.600 18.600 C 284.940 18.455,284.400 18.185,284.400 18.000 C 284.400 17.815,283.860 17.545,283.200 17.400 C 282.540 17.255,282.000 16.971,282.000 16.768 C 282.000 16.566,281.550 16.400,281.000 16.400 C 280.450 16.400,280.000 16.234,280.000 16.032 C 280.000 15.829,279.460 15.545,278.800 15.400 C 278.140 15.255,277.600 14.971,277.600 14.768 C 277.600 14.566,277.285 14.399,276.900 14.398 C 276.515 14.396,275.717 14.143,275.127 13.835 C 274.537 13.527,273.502 13.154,272.827 13.006 C 272.152 12.858,271.600 12.591,271.600 12.414 C 271.600 12.236,270.794 11.970,269.809 11.822 C 268.824 11.675,267.920 11.395,267.800 11.200 C 267.680 11.005,266.776 10.725,265.791 10.578 C 264.806 10.430,264.000 10.150,264.000 9.955 C 264.000 9.760,263.651 9.600,263.224 9.600 C 262.797 9.600,262.346 9.436,262.222 9.235 C 262.097 9.034,261.232 8.742,260.298 8.586 C 259.364 8.430,258.496 8.139,258.370 7.940 C 258.243 7.742,257.208 7.469,256.070 7.334 C 254.931 7.199,254.000 6.945,254.000 6.769 C 254.000 6.593,253.145 6.325,252.100 6.174 C 251.055 6.023,250.018 5.756,249.796 5.580 C 249.574 5.405,248.269 5.134,246.896 4.979 C 245.523 4.824,244.400 4.558,244.400 4.389 C 244.400 4.220,243.140 3.955,241.600 3.800 C 240.060 3.645,238.800 3.357,238.800 3.159 C 238.800 2.962,238.158 2.800,237.374 2.800 C 236.589 2.800,235.630 2.630,235.243 2.423 C 234.855 2.216,233.112 1.932,231.369 1.793 C 229.626 1.654,227.840 1.382,227.400 1.188 C 224.984 0.126,192.300 -0.363,179.000 0.466 M292.624 126.167 C 293.305 126.664,293.424 127.383,293.600 132.067 L 293.800 137.400 297.600 137.615 C 302.633 137.900,304.664 139.064,306.654 142.800 C 307.368 144.140,307.400 145.953,307.400 184.800 L 307.400 225.400 306.512 227.061 C 303.843 232.051,303.658 232.080,274.968 231.926 L 251.336 231.800 249.386 230.594 C 247.966 229.716,247.131 228.805,246.318 227.248 L 245.200 225.109 245.200 184.741 L 245.200 144.373 246.157 142.487 C 247.834 139.180,250.556 137.623,254.686 137.609 C 257.872 137.598,258.000 137.361,258.000 131.455 C 258.000 127.808,258.130 126.727,258.629 126.229 C 259.526 125.331,291.399 125.273,292.624 126.167 M219.000 127.804 C 226.571 129.401,233.033 135.374,234.808 142.417 C 235.945 146.927,236.023 149.605,235.911 179.952 L 235.795 211.400 234.686 214.549 C 231.073 224.802,224.118 229.335,212.000 229.335 C 199.042 229.335,191.172 223.535,188.639 212.121 C 187.566 207.286,187.699 148.241,188.793 143.901 C 192.033 131.044,204.034 124.648,219.000 127.804 M105.901 128.940 C 116.759 131.262,121.600 138.743,121.600 153.200 C 121.600 163.447,119.011 170.585,114.154 173.730 C 112.404 174.863,112.416 174.902,115.033 176.639 C 121.176 180.717,122.934 185.953,122.943 200.200 C 122.953 217.116,119.577 223.467,108.663 227.064 C 104.955 228.286,76.829 229.086,74.848 228.026 L 74.000 227.572 74.000 178.266 C 74.000 139.362,74.105 128.852,74.500 128.446 C 75.259 127.666,101.903 128.085,105.901 128.940 M166.698 128.500 C 167.153 129.073,167.403 130.471,169.800 145.800 C 170.143 148.000,170.592 150.700,170.796 151.800 C 170.999 152.900,171.274 154.700,171.406 155.800 C 171.538 156.900,171.805 158.610,172.000 159.600 C 172.195 160.590,172.628 163.200,172.964 165.400 C 173.692 170.183,175.755 183.167,176.585 188.200 C 176.911 190.180,177.459 193.600,177.802 195.800 C 178.144 198.000,178.587 200.700,178.785 201.800 C 178.983 202.900,179.255 204.700,179.389 205.800 C 179.524 206.900,179.801 208.700,180.004 209.800 C 180.208 210.900,180.651 213.555,180.988 215.700 C 181.324 217.845,181.896 221.338,182.259 223.463 C 183.150 228.690,183.508 228.477,174.085 228.321 C 165.651 228.181,166.275 228.512,165.620 223.836 C 164.865 218.453,163.945 212.255,163.760 211.300 L 163.585 210.400 154.445 210.400 L 145.305 210.400 145.043 212.100 C 144.516 215.519,143.576 221.871,143.194 224.600 C 142.940 226.414,142.563 227.576,142.124 227.900 C 141.404 228.432,130.278 228.624,128.456 228.136 C 127.279 227.821,127.021 230.031,131.413 202.800 C 132.824 194.052,133.508 189.784,134.216 185.300 C 134.555 183.155,135.006 180.410,135.219 179.200 C 135.431 177.990,135.963 174.660,136.402 171.800 C 136.840 168.940,137.301 166.060,137.426 165.400 C 137.551 164.740,137.901 162.580,138.203 160.600 C 138.504 158.620,139.034 155.245,139.380 153.101 C 139.727 150.956,140.289 147.446,140.630 145.301 C 140.971 143.155,141.407 140.410,141.600 139.200 C 141.793 137.990,142.225 135.226,142.562 133.057 C 142.898 130.888,143.381 128.863,143.636 128.557 C 144.278 127.784,166.088 127.730,166.698 128.500 M262.883 130.337 C 262.511 130.576,262.398 131.613,262.483 134.034 L 262.600 137.400 275.600 137.400 L 288.600 137.400 288.600 133.800 L 288.600 130.200 276.000 130.103 C 269.070 130.050,263.167 130.155,262.883 130.337 M209.906 142.378 C 207.870 143.028,206.089 144.406,205.343 145.906 C 204.288 148.027,203.977 206.520,205.003 209.610 C 207.435 216.932,218.471 215.605,219.397 207.880 C 219.534 206.736,219.591 192.660,219.523 176.600 L 219.400 147.400 218.513 145.742 C 217.120 143.137,212.808 141.452,209.906 142.378 M252.600 142.561 C 249.545 143.910,249.800 140.049,249.800 184.875 L 249.800 224.866 251.106 226.033 L 252.413 227.200 276.306 227.191 C 302.407 227.181,301.144 227.291,302.353 224.926 C 302.673 224.300,302.800 212.838,302.800 184.480 C 302.800 139.779,303.065 143.356,299.682 142.416 C 297.303 141.755,254.124 141.888,252.600 142.561 M90.894 143.533 C 90.500 143.783,90.412 146.555,90.494 156.027 L 90.600 168.200 95.000 168.300 C 102.958 168.482,105.178 165.777,105.194 155.879 C 105.205 148.522,103.785 144.997,100.301 143.733 C 98.824 143.197,91.663 143.045,90.894 143.533 M154.156 152.071 C 153.863 152.546,153.556 154.453,152.400 163.000 C 152.192 164.540,151.837 166.880,151.611 168.200 C 151.385 169.520,150.930 172.445,150.600 174.700 C 149.665 181.088,148.814 186.674,148.180 190.570 C 147.861 192.534,147.600 194.559,147.600 195.070 L 147.600 196.000 154.429 196.000 L 161.258 196.000 161.000 193.700 C 160.858 192.435,160.495 189.870,160.193 188.000 C 159.669 184.765,159.068 180.743,157.772 171.800 C 157.453 169.600,157.009 166.720,156.785 165.400 C 156.561 164.080,156.211 161.740,156.006 160.200 C 154.938 152.158,154.713 151.170,154.156 152.071 M282.869 157.062 C 283.914 158.008,283.843 158.411,281.385 165.425 C 278.632 173.282,278.397 172.750,284.672 172.888 C 292.850 173.067,293.265 171.251,279.676 194.743 C 268.995 213.207,268.584 213.777,266.600 212.873 C 265.061 212.171,265.269 210.816,268.805 198.534 C 270.567 192.411,271.923 187.176,271.817 186.901 C 271.679 186.540,270.331 186.400,266.986 186.400 C 260.620 186.400,259.831 185.740,261.379 181.708 C 261.698 180.879,263.783 175.250,266.013 169.200 C 271.273 154.926,270.045 156.400,276.678 156.400 C 281.196 156.400,282.263 156.514,282.869 157.062 M274.079 161.305 C 273.661 161.809,266.400 181.075,266.400 181.681 C 266.400 181.856,268.526 182.000,271.124 182.000 C 277.719 182.000,278.126 182.448,276.572 187.987 C 275.246 192.712,275.759 192.218,280.351 184.345 C 284.881 176.579,284.961 177.200,279.429 177.200 C 272.607 177.200,272.604 177.191,275.638 168.087 C 276.758 164.724,277.574 161.709,277.450 161.387 C 277.170 160.657,274.667 160.597,274.079 161.305 M90.700 183.825 C 90.164 184.376,90.337 212.577,90.880 213.120 C 91.541 213.781,97.993 213.730,100.924 213.041 C 105.890 211.872,106.485 210.279,106.322 198.584 C 106.175 187.993,105.750 186.568,102.220 184.819 C 100.189 183.813,91.446 183.058,90.700 183.825 M274.269 239.633 C 276.491 240.709,277.833 242.342,278.590 244.892 C 279.473 247.866,279.482 271.705,278.601 274.672 C 276.025 283.348,262.260 283.421,259.467 274.774 C 258.488 271.742,258.474 247.789,259.450 244.914 C 261.388 239.206,268.298 236.743,274.269 239.633 M251.248 239.817 C 255.653 241.371,257.000 244.271,257.000 252.200 C 257.000 261.857,253.858 265.600,245.751 265.600 L 244.800 265.600 244.800 272.520 C 244.800 280.690,244.949 280.400,240.734 280.400 C 236.495 280.400,236.800 281.996,236.800 259.800 C 236.800 247.432,236.945 240.476,237.214 239.974 C 237.772 238.932,248.403 238.813,251.248 239.817 M287.944 239.900 C 288.149 240.285,288.807 245.280,289.407 251.000 C 290.501 261.433,290.952 263.601,291.351 260.348 C 291.604 258.285,292.662 247.486,293.031 243.200 C 293.365 239.319,293.483 239.200,297.000 239.200 C 301.043 239.200,300.867 238.596,302.615 258.444 C 302.837 260.955,303.544 263.639,303.605 262.200 C 303.813 257.305,306.003 239.844,306.443 239.565 C 307.306 239.019,311.839 239.123,312.310 239.700 C 312.801 240.302,308.554 279.116,307.912 279.900 C 307.632 280.241,306.196 280.400,303.400 280.400 C 298.328 280.400,298.659 280.826,297.817 273.200 C 296.904 264.938,296.895 264.944,295.842 274.472 C 295.534 277.262,295.163 279.737,295.017 279.972 C 294.710 280.470,286.471 280.560,285.707 280.074 C 284.929 279.581,280.608 239.968,281.285 239.539 C 282.352 238.862,287.542 239.143,287.944 239.900 M332.719 242.391 C 332.877 246.339,332.785 246.400,326.711 246.400 L 321.975 246.400 322.087 251.100 L 322.200 255.800 325.978 255.916 C 330.550 256.056,330.800 256.228,330.800 259.216 C 330.800 262.831,330.835 262.800,326.790 262.800 C 321.691 262.800,322.000 262.449,322.000 268.235 C 322.000 274.053,321.429 273.550,328.200 273.701 L 332.600 273.800 332.600 277.000 L 332.600 280.200 324.400 280.313 C 319.890 280.376,315.795 280.327,315.300 280.206 L 314.400 279.985 314.400 259.826 C 314.400 244.075,314.509 239.622,314.900 239.461 C 315.175 239.348,319.270 239.288,324.000 239.328 L 332.600 239.400 332.719 242.391 M350.917 239.834 C 356.474 241.727,358.587 253.212,354.353 258.510 L 353.146 260.020 354.170 261.237 C 355.829 263.208,356.341 265.911,356.477 273.400 L 356.600 280.200 353.400 280.302 C 348.829 280.448,349.035 280.779,348.798 272.915 C 348.571 265.378,348.345 264.629,346.181 264.223 C 343.701 263.758,343.630 263.980,343.508 272.542 L 343.400 280.200 340.262 280.318 C 338.293 280.391,336.915 280.261,336.562 279.969 C 335.796 279.333,335.717 240.443,336.480 239.680 C 337.246 238.914,348.571 239.034,350.917 239.834 M267.023 246.489 C 266.492 247.247,266.400 249.205,266.400 259.800 C 266.400 273.741,266.447 274.000,268.994 274.000 C 271.625 274.000,271.600 274.136,271.600 260.060 C 271.600 245.827,271.559 245.600,269.000 245.600 C 268.054 245.600,267.458 245.868,267.023 246.489 M244.800 252.400 L 244.800 258.400 245.900 258.395 C 248.982 258.379,249.600 257.345,249.600 252.200 C 249.600 247.237,249.190 246.400,246.761 246.400 L 244.800 246.400 244.800 252.400 M343.774 246.923 C 343.664 247.211,343.624 249.596,343.687 252.223 L 343.800 257.000 344.873 257.124 C 346.874 257.355,348.317 256.226,348.622 254.191 C 348.993 251.716,348.669 247.806,348.028 247.034 C 347.370 246.241,344.069 246.156,343.774 246.923 " stroke="none" fill="#242424" fill-rule="evenodd"></path><path id="path1" d="M208.000 127.855 C 196.681 129.508,190.565 135.546,188.814 146.800 C 187.989 152.104,188.429 209.946,189.319 213.000 C 192.532 224.039,199.164 228.600,212.000 228.600 C 223.071 228.600,229.237 225.322,232.953 217.461 C 235.473 212.130,235.400 213.303,235.400 178.400 L 235.400 146.600 234.495 143.476 C 231.155 131.951,220.990 125.958,208.000 127.855 M74.596 129.270 C 74.485 129.561,74.440 151.760,74.497 178.600 L 74.600 227.400 90.400 227.400 C 108.329 227.400,108.950 227.309,114.021 223.923 C 120.476 219.612,122.527 213.888,122.518 200.200 C 122.510 186.303,120.338 180.229,114.124 176.722 C 111.642 175.322,111.506 174.770,113.361 173.624 C 118.668 170.344,120.786 164.519,120.786 153.200 C 120.786 138.865,117.120 132.627,107.000 129.741 C 103.762 128.817,74.928 128.398,74.596 129.270 M143.835 129.452 C 143.698 129.810,143.334 131.745,143.027 133.752 C 142.720 135.758,140.728 148.200,138.601 161.400 C 136.474 174.600,134.494 186.930,134.201 188.800 C 133.907 190.670,132.830 197.420,131.805 203.800 C 130.781 210.180,129.776 216.480,129.571 217.800 C 129.367 219.120,128.945 221.730,128.633 223.600 C 127.917 227.893,127.475 227.639,135.428 227.510 L 142.197 227.400 143.498 218.824 C 144.276 213.696,145.000 210.120,145.300 209.930 C 146.241 209.332,163.076 209.533,163.692 210.149 C 164.021 210.478,164.686 213.731,165.349 218.249 C 165.958 222.402,166.553 226.205,166.672 226.700 C 166.885 227.594,166.940 227.600,174.377 227.600 C 182.931 227.600,182.373 227.769,181.972 225.294 C 181.804 224.252,180.574 216.560,179.240 208.200 C 177.905 199.840,175.835 186.880,174.638 179.400 C 173.442 171.920,171.269 158.330,169.809 149.200 C 168.349 140.070,167.075 132.195,166.977 131.700 C 166.880 131.205,166.707 130.350,166.592 129.800 L 166.385 128.800 155.235 128.800 C 145.299 128.800,144.058 128.871,143.835 129.452 M215.898 142.624 C 217.574 143.459,218.141 144.026,218.976 145.702 L 220.000 147.757 219.998 177.979 C 219.996 197.533,219.850 208.725,219.582 209.688 C 217.877 215.830,208.009 216.765,204.900 211.079 C 203.706 208.896,203.836 147.695,205.039 145.401 C 206.859 141.931,211.914 140.639,215.898 142.624 M100.913 143.348 C 104.224 144.759,105.293 147.332,105.516 154.428 C 105.875 165.823,103.797 168.813,95.296 169.135 C 92.422 169.244,91.013 169.143,90.596 168.797 C 89.970 168.277,89.655 143.678,90.267 143.067 C 90.786 142.547,99.579 142.780,100.913 143.348 M154.970 149.900 C 155.098 150.505,156.549 160.090,158.193 171.200 C 159.838 182.310,161.366 192.365,161.588 193.545 C 161.810 194.725,161.893 195.850,161.772 196.045 C 161.408 196.634,147.319 196.494,147.107 195.900 C 146.971 195.520,150.039 174.554,153.985 148.900 C 154.073 148.324,154.790 149.051,154.970 149.900 M102.800 184.411 C 108.254 187.407,109.252 208.660,104.110 212.321 C 102.101 213.752,93.114 214.709,90.633 213.757 C 89.951 213.496,89.629 184.113,90.300 183.427 C 91.088 182.621,100.956 183.399,102.800 184.411 M240.900 239.897 C 242.385 239.974,244.815 239.974,246.300 239.897 C 247.785 239.820,246.570 239.757,243.600 239.757 C 240.630 239.757,239.415 239.820,240.900 239.897 M281.549 240.300 C 281.068 240.913,281.076 240.941,281.614 240.523 C 281.951 240.260,283.301 239.979,284.614 239.898 L 287.000 239.751 284.549 239.676 C 282.629 239.616,281.979 239.752,281.549 240.300 M294.262 239.900 C 294.160 240.065,295.392 240.200,297.000 240.200 C 298.608 240.200,299.840 240.065,299.738 239.900 C 299.636 239.735,298.404 239.600,297.000 239.600 C 295.596 239.600,294.364 239.735,294.262 239.900 M308.100 239.887 C 308.705 239.978,309.695 239.978,310.300 239.887 C 310.905 239.795,310.410 239.720,309.200 239.720 C 307.990 239.720,307.495 239.795,308.100 239.887 M319.500 239.898 C 321.755 239.970,325.445 239.970,327.700 239.898 C 329.955 239.827,328.110 239.769,323.600 239.769 C 319.090 239.769,317.245 239.827,319.500 239.898 M336.880 240.080 C 336.517 240.443,336.423 245.258,336.494 259.780 L 336.588 279.000 336.794 259.600 L 337.000 240.200 342.800 239.983 L 348.600 239.766 342.980 239.683 C 339.043 239.625,337.216 239.744,336.880 240.080 M314.985 259.800 C 314.985 270.580,315.037 274.933,315.100 269.472 C 315.163 264.012,315.163 255.192,315.100 249.872 C 315.037 244.553,314.985 249.020,314.985 259.800 M332.074 242.667 C 332.028 244.205,331.812 245.209,331.500 245.335 C 331.108 245.493,331.111 245.544,331.513 245.568 C 332.260 245.614,332.464 244.777,332.297 242.352 L 332.148 240.200 332.074 242.667 M268.305 245.083 C 268.802 245.179,269.522 245.175,269.905 245.075 C 270.287 244.975,269.880 244.896,269.000 244.901 C 268.120 244.905,267.807 244.987,268.305 245.083 M342.975 246.120 C 342.865 246.406,342.827 249.061,342.890 252.020 L 343.004 257.400 343.202 251.499 C 343.397 245.690,343.372 245.088,342.975 246.120 M256.155 252.200 C 256.156 255.060,256.220 256.178,256.297 254.683 C 256.374 253.189,256.374 250.849,256.296 249.483 C 256.218 248.118,256.155 249.340,256.155 252.200 M272.178 259.800 C 272.179 266.840,272.233 269.664,272.299 266.075 C 272.366 262.486,272.366 256.726,272.299 253.275 C 272.233 249.824,272.178 252.760,272.178 259.800 M259.376 259.600 C 259.376 265.870,259.432 268.435,259.499 265.300 C 259.567 262.165,259.567 257.035,259.499 253.900 C 259.432 250.765,259.376 253.330,259.376 259.600 M278.575 259.600 C 278.575 265.430,278.631 267.815,278.699 264.900 C 278.767 261.985,278.767 257.215,278.699 254.300 C 278.631 251.385,278.575 253.770,278.575 259.600 M349.320 251.600 C 349.320 252.810,349.395 253.305,349.487 252.700 C 349.578 252.095,349.578 251.105,349.487 250.500 C 349.395 249.895,349.320 250.390,349.320 251.600 M352.801 258.998 C 352.286 259.548,351.939 260.064,352.032 260.146 C 352.124 260.228,352.619 259.778,353.130 259.147 C 354.276 257.735,354.074 257.644,352.801 258.998 M245.505 259.083 C 246.002 259.179,246.722 259.175,247.105 259.075 C 247.487 258.975,247.080 258.896,246.200 258.901 C 245.320 258.905,245.007 258.987,245.505 259.083 M326.000 262.000 L 322.200 262.247 325.876 262.323 C 327.983 262.367,329.658 262.229,329.800 262.000 C 329.936 261.780,329.992 261.634,329.924 261.677 C 329.856 261.719,328.090 261.864,326.000 262.000 M342.978 264.113 C 342.869 264.396,342.831 267.861,342.892 271.813 L 343.002 279.000 343.201 271.300 C 343.396 263.746,343.375 263.077,342.978 264.113 M291.200 266.533 C 291.200 266.900,291.020 267.200,290.800 267.200 C 290.580 267.200,290.400 267.380,290.400 267.600 C 290.400 267.820,290.568 268.000,290.773 268.000 C 291.223 268.000,291.770 266.437,291.437 266.103 C 291.306 265.973,291.200 266.167,291.200 266.533 M349.357 272.800 C 349.357 275.770,349.420 276.985,349.497 275.500 C 349.574 274.015,349.574 271.585,349.497 270.100 C 349.420 268.615,349.357 269.830,349.357 272.800 M331.479 274.280 C 331.742 274.467,332.027 275.786,332.112 277.210 L 332.266 279.800 332.233 277.032 C 332.208 274.930,332.056 274.225,331.600 274.101 C 331.178 273.987,331.142 274.040,331.479 274.280 M237.959 279.721 C 238.136 279.897,239.433 279.985,240.841 279.916 L 243.400 279.791 240.518 279.595 C 238.933 279.488,237.781 279.544,237.959 279.721 M303.400 279.600 L 299.400 279.845 303.276 279.923 C 305.517 279.967,307.257 279.831,307.400 279.600 C 307.536 279.380,307.592 279.235,307.524 279.277 C 307.456 279.320,305.600 279.465,303.400 279.600 M288.313 279.895 C 289.476 279.976,291.276 279.976,292.313 279.893 C 293.351 279.811,292.400 279.745,290.200 279.746 C 288.000 279.747,287.151 279.814,288.313 279.895 M319.500 279.898 C 321.755 279.970,325.445 279.970,327.700 279.898 C 329.955 279.827,328.110 279.769,323.600 279.769 C 319.090 279.769,317.245 279.827,319.500 279.898 M338.291 279.889 C 339.001 279.977,340.261 279.979,341.091 279.892 C 341.921 279.805,341.340 279.733,339.800 279.731 C 338.260 279.729,337.581 279.800,338.291 279.889 M351.491 279.889 C 352.201 279.977,353.461 279.979,354.291 279.892 C 355.121 279.805,354.540 279.733,353.000 279.731 C 351.460 279.729,350.781 279.800,351.491 279.889 " stroke="none" fill="#7ad753" fill-rule="evenodd"></path><path id="path2" d="M265.997 239.550 C 262.941 240.553,261.297 242.031,260.261 244.708 C 259.310 247.167,259.273 272.097,260.216 274.866 C 262.574 281.786,273.790 282.450,277.304 275.877 C 278.331 273.955,278.923 249.027,278.021 245.676 C 276.743 240.933,270.884 237.947,265.997 239.550 M237.783 240.500 C 237.678 240.775,237.639 249.640,237.696 260.200 L 237.800 279.400 240.800 279.400 L 243.800 279.400 243.909 272.157 L 244.018 264.913 246.834 264.651 C 254.262 263.961,255.982 261.620,255.982 252.200 C 255.982 244.477,255.202 242.469,251.562 240.817 C 249.409 239.840,238.136 239.581,237.783 240.500 M281.834 240.344 C 281.705 240.553,281.881 243.216,282.226 246.262 C 283.067 253.716,283.781 260.227,284.804 269.800 C 285.274 274.200,285.739 278.205,285.837 278.700 C 286.008 279.564,286.181 279.600,290.163 279.600 L 294.311 279.600 294.531 278.300 C 294.652 277.585,295.059 274.030,295.436 270.400 C 296.419 260.944,297.148 259.653,297.793 266.228 C 297.942 267.753,298.320 271.155,298.632 273.788 C 298.945 276.421,299.200 278.813,299.200 279.102 C 299.200 279.510,300.121 279.602,303.299 279.514 L 307.398 279.400 307.698 277.000 C 307.956 274.932,311.412 243.997,311.698 241.200 C 311.797 240.225,311.734 240.200,309.201 240.200 L 306.601 240.200 306.337 242.600 C 306.192 243.920,305.773 248.060,305.404 251.800 C 303.977 266.301,303.632 268.565,302.949 267.883 C 302.811 267.745,302.102 261.662,301.373 254.366 C 299.777 238.399,300.257 239.935,296.913 240.082 L 294.216 240.200 293.940 242.000 C 293.789 242.990,293.170 249.058,292.566 255.484 C 290.941 272.766,290.765 272.578,288.581 251.200 C 288.210 247.570,287.792 243.610,287.653 242.400 L 287.399 240.200 284.734 240.083 C 283.268 240.018,281.963 240.136,281.834 240.344 M315.200 259.800 L 315.200 279.600 323.600 279.600 L 332.000 279.600 332.000 277.008 C 332.000 273.917,332.252 274.043,325.800 273.899 L 321.400 273.800 321.288 268.432 C 321.153 261.992,320.964 262.255,325.918 262.000 L 329.800 261.800 329.923 259.643 C 330.085 256.804,329.843 256.635,325.282 256.400 L 321.400 256.200 321.400 251.000 L 321.400 245.800 325.800 245.701 C 332.252 245.557,332.000 245.683,332.000 242.592 L 332.000 240.000 323.600 240.000 L 315.200 240.000 315.200 259.800 M337.067 240.267 C 336.920 240.413,336.800 249.323,336.800 260.067 L 336.800 279.600 339.792 279.600 L 342.783 279.600 342.892 271.700 L 343.000 263.800 345.357 263.800 C 349.071 263.800,349.345 264.378,349.598 272.727 L 349.800 279.400 352.800 279.515 L 355.800 279.630 355.702 274.115 C 355.561 266.221,355.076 263.666,353.332 261.629 L 351.923 259.983 353.339 258.415 C 355.002 256.574,355.400 255.026,355.400 250.400 C 355.400 244.512,354.387 242.283,351.017 240.752 C 349.376 240.006,337.732 239.601,337.067 240.267 M271.256 245.565 L 272.200 246.329 272.200 259.800 L 272.200 273.271 271.256 274.035 C 269.909 275.126,267.791 275.027,266.582 273.818 L 265.600 272.836 265.600 259.800 L 265.600 246.764 266.582 245.782 C 267.791 244.573,269.909 244.474,271.256 245.565 M249.377 246.489 C 250.265 247.757,250.274 256.631,249.389 257.895 C 248.711 258.862,246.550 259.425,245.003 259.036 L 244.000 258.785 244.000 252.192 L 244.000 245.600 246.377 245.600 C 248.381 245.600,248.853 245.740,249.377 246.489 M348.678 246.663 C 349.773 248.334,349.695 254.746,348.561 256.265 C 347.549 257.621,345.189 258.306,343.765 257.657 C 342.808 257.221,342.187 246.746,343.067 245.867 C 343.899 245.034,347.991 245.615,348.678 246.663 " stroke="none" fill="#efefee" fill-rule="evenodd"></path><path id="path3" d="M258.629 126.229 C 258.130 126.727,258.000 127.808,258.000 131.455 C 258.000 137.361,257.872 137.598,254.686 137.609 C 250.556 137.623,247.834 139.180,246.157 142.487 L 245.200 144.373 245.200 184.741 L 245.200 225.109 246.318 227.248 C 247.131 228.805,247.966 229.716,249.386 230.594 L 251.336 231.800 274.968 231.926 C 303.658 232.080,303.843 232.051,306.512 227.061 L 307.400 225.400 307.400 184.800 C 307.400 145.953,307.368 144.140,306.654 142.800 C 304.664 139.064,302.633 137.900,297.600 137.615 L 293.800 137.400 293.600 132.067 C 293.424 127.383,293.305 126.664,292.624 126.167 C 291.399 125.273,259.526 125.331,258.629 126.229 M207.700 127.476 C 208.085 127.576,208.715 127.576,209.100 127.476 C 209.485 127.375,209.170 127.293,208.400 127.293 C 207.630 127.293,207.315 127.375,207.700 127.476 M214.900 127.476 C 215.285 127.576,215.915 127.576,216.300 127.476 C 216.685 127.375,216.370 127.293,215.600 127.293 C 214.830 127.293,214.515 127.375,214.900 127.476 M80.900 128.299 C 84.365 128.366,90.035 128.366,93.500 128.299 C 96.965 128.233,94.130 128.178,87.200 128.178 C 80.270 128.178,77.435 128.233,80.900 128.299 M143.680 128.480 C 143.416 128.744,143.205 129.149,143.212 129.380 C 143.219 129.611,143.408 129.485,143.632 129.100 C 144.005 128.460,144.993 128.400,155.200 128.400 C 165.407 128.400,166.395 128.460,166.768 129.100 C 166.992 129.485,167.181 129.611,167.188 129.380 C 167.224 128.118,166.203 128.000,155.200 128.000 C 147.147 128.000,144.030 128.130,143.680 128.480 M288.600 133.800 L 288.600 137.400 275.600 137.400 L 262.600 137.400 262.483 134.034 C 262.331 129.685,261.284 129.990,276.000 130.103 L 288.600 130.200 288.600 133.800 M110.433 130.549 C 110.845 130.917,113.200 132.000,113.200 131.821 C 113.200 131.590,110.982 130.400,110.553 130.400 C 110.396 130.400,110.342 130.467,110.433 130.549 M229.183 133.300 C 230.164 134.345,231.019 135.200,231.083 135.200 C 231.384 135.200,231.066 134.841,229.300 133.183 L 227.400 131.400 229.183 133.300 M299.682 142.416 C 303.065 143.356,302.800 139.779,302.800 184.480 C 302.800 212.838,302.673 224.300,302.353 224.926 C 301.144 227.291,302.407 227.181,276.306 227.191 L 252.413 227.200 251.106 226.033 L 249.800 224.866 249.800 184.875 C 249.800 140.049,249.545 143.910,252.600 142.561 C 254.124 141.888,297.303 141.755,299.682 142.416 M207.544 143.224 L 206.600 144.047 207.800 143.345 C 209.379 142.420,209.403 142.400,208.911 142.400 C 208.679 142.400,208.064 142.771,207.544 143.224 M215.178 142.841 C 215.717 143.056,216.355 143.360,216.597 143.516 C 216.840 143.672,216.694 143.485,216.275 143.100 C 215.855 142.715,215.216 142.411,214.856 142.425 C 214.441 142.441,214.560 142.594,215.178 142.841 M121.361 153.200 C 121.361 156.610,121.422 158.005,121.497 156.300 C 121.572 154.595,121.572 151.805,121.497 150.100 C 121.422 148.395,121.361 149.790,121.361 153.200 M154.063 150.926 C 153.404 152.529,153.490 153.134,154.228 152.082 C 154.573 151.589,154.782 150.873,154.691 150.493 C 154.563 149.956,154.421 150.054,154.063 150.926 M219.790 178.200 C 219.789 193.820,219.839 200.268,219.900 192.529 C 219.961 184.791,219.961 172.011,219.900 164.129 C 219.839 156.248,219.790 162.580,219.790 178.200 M270.643 157.300 C 270.326 157.795,268.242 163.150,266.013 169.200 C 263.783 175.250,261.698 180.879,261.379 181.708 C 259.831 185.740,260.620 186.400,266.986 186.400 C 270.331 186.400,271.679 186.540,271.817 186.901 C 271.923 187.176,270.567 192.411,268.805 198.534 C 265.269 210.816,265.061 212.171,266.600 212.873 C 268.584 213.777,268.995 213.207,279.676 194.743 C 293.265 171.251,292.850 173.067,284.672 172.888 C 278.397 172.750,278.632 173.282,281.385 165.425 C 284.620 156.194,284.727 156.400,276.678 156.400 C 271.454 156.400,271.194 156.439,270.643 157.300 M277.450 161.387 C 277.574 161.709,276.758 164.724,275.638 168.087 C 272.604 177.191,272.607 177.200,279.429 177.200 C 284.961 177.200,284.881 176.579,280.351 184.345 C 275.759 192.218,275.246 192.712,276.572 187.987 C 278.126 182.448,277.719 182.000,271.124 182.000 C 268.526 182.000,266.400 181.856,266.400 181.681 C 266.400 181.075,273.661 161.809,274.079 161.305 C 274.667 160.597,277.170 160.657,277.450 161.387 M90.754 168.516 C 90.929 168.690,92.766 168.778,94.836 168.713 L 98.600 168.595 94.518 168.397 C 92.273 168.289,90.579 168.342,90.754 168.516 M115.578 172.300 L 114.200 173.800 115.700 172.422 C 116.525 171.663,117.200 170.988,117.200 170.922 C 117.200 170.616,116.862 170.904,115.578 172.300 M106.566 199.600 C 106.566 203.670,106.625 205.335,106.698 203.300 C 106.771 201.265,106.771 197.935,106.698 195.900 C 106.625 193.865,106.566 195.530,106.566 199.600 M122.957 200.400 C 122.957 203.370,123.020 204.585,123.097 203.100 C 123.174 201.615,123.174 199.185,123.097 197.700 C 123.020 196.215,122.957 197.430,122.957 200.400 M151.100 196.298 C 152.915 196.372,155.885 196.372,157.700 196.298 C 159.515 196.223,158.030 196.163,154.400 196.163 C 150.770 196.163,149.285 196.223,151.100 196.298 M235.693 208.400 C 235.693 209.170,235.775 209.485,235.876 209.100 C 235.976 208.715,235.976 208.085,235.876 207.700 C 235.775 207.315,235.693 207.630,235.693 208.400 M188.093 208.800 C 188.093 209.570,188.175 209.885,188.276 209.500 C 188.376 209.115,188.376 208.485,188.276 208.100 C 188.175 207.715,188.093 208.030,188.093 208.800 M154.381 210.296 C 160.917 210.383,163.458 210.550,163.712 210.908 C 163.965 211.266,164.016 211.236,163.897 210.800 C 163.758 210.289,162.369 210.198,154.567 210.188 L 145.400 210.176 154.381 210.296 M211.300 214.676 C 211.685 214.776,212.315 214.776,212.700 214.676 C 213.085 214.575,212.770 214.493,212.000 214.493 C 211.230 214.493,210.915 214.575,211.300 214.676 M193.200 222.125 C 193.200 222.194,193.785 222.779,194.500 223.425 L 195.800 224.600 194.625 223.300 C 193.530 222.088,193.200 221.816,193.200 222.125 M182.352 226.713 C 182.221 227.507,182.279 227.881,182.501 227.659 C 182.703 227.457,182.801 226.867,182.719 226.346 C 182.593 225.545,182.537 225.602,182.352 226.713 M81.674 228.299 C 85.345 228.365,91.465 228.365,95.274 228.299 C 99.083 228.234,96.080 228.180,88.600 228.180 C 81.120 228.179,78.003 228.233,81.674 228.299 M131.900 228.298 C 133.715 228.372,136.685 228.372,138.500 228.298 C 140.315 228.223,138.830 228.163,135.200 228.163 C 131.570 228.163,130.085 228.223,131.900 228.298 M170.880 228.298 C 172.794 228.371,176.034 228.371,178.080 228.298 C 180.126 228.226,178.560 228.166,174.600 228.165 C 170.640 228.165,168.966 228.224,170.880 228.298 M210.700 229.489 C 211.415 229.578,212.585 229.578,213.300 229.489 C 214.015 229.401,213.430 229.328,212.000 229.328 C 210.570 229.328,209.985 229.401,210.700 229.489 M155.800 395.600 C 155.936 395.820,156.307 396.000,156.624 396.000 C 156.941 396.000,157.200 395.820,157.200 395.600 C 157.200 395.380,156.829 395.200,156.376 395.200 C 155.923 395.200,155.664 395.380,155.800 395.600 M161.800 396.800 C 161.664 397.020,161.923 397.200,162.376 397.200 C 162.829 397.200,163.200 397.020,163.200 396.800 C 163.200 396.580,162.941 396.400,162.624 396.400 C 162.307 396.400,161.936 396.580,161.800 396.800 M168.600 398.000 C 168.459 398.228,168.804 398.400,169.400 398.400 C 169.996 398.400,170.341 398.228,170.200 398.000 C 170.064 397.780,169.704 397.600,169.400 397.600 C 169.096 397.600,168.736 397.780,168.600 398.000 M178.577 399.238 C 178.454 399.437,178.813 399.600,179.376 399.600 C 180.602 399.600,180.701 399.372,179.600 399.084 C 179.161 398.969,178.700 399.038,178.577 399.238 " stroke="none" fill="#0f7b35" fill-rule="evenodd"></path><path id="path4" d="M210.700 127.489 C 211.415 127.578,212.585 127.578,213.300 127.489 C 214.015 127.401,213.430 127.328,212.000 127.328 C 210.570 127.328,209.985 127.401,210.700 127.489 M206.705 127.883 C 207.202 127.979,207.922 127.975,208.305 127.875 C 208.687 127.775,208.280 127.696,207.400 127.701 C 206.520 127.705,206.207 127.787,206.705 127.883 M216.100 127.876 C 216.485 127.976,217.115 127.976,217.500 127.876 C 217.885 127.775,217.570 127.693,216.800 127.693 C 216.030 127.693,215.715 127.775,216.100 127.876 M203.400 128.400 C 202.381 128.838,203.432 128.838,204.800 128.400 C 205.604 128.143,205.643 128.077,205.000 128.068 C 204.560 128.062,203.840 128.211,203.400 128.400 M74.400 128.700 C 74.399 128.973,85.310 128.966,97.400 128.685 C 100.040 128.623,95.945 128.534,88.300 128.486 C 80.655 128.439,74.400 128.535,74.400 128.700 M143.614 129.174 C 143.386 129.599,143.216 130.274,143.236 130.674 C 143.256 131.073,143.441 130.815,143.648 130.100 L 144.023 128.800 155.204 128.800 L 166.385 128.800 166.577 129.700 C 166.682 130.195,166.845 130.960,166.938 131.400 C 167.056 131.959,167.121 131.861,167.154 131.074 C 167.267 128.329,167.586 128.400,155.200 128.400 C 144.564 128.400,144.008 128.437,143.614 129.174 M102.900 129.076 C 103.285 129.176,103.915 129.176,104.300 129.076 C 104.685 128.975,104.370 128.893,103.600 128.893 C 102.830 128.893,102.515 128.975,102.900 129.076 M200.100 129.589 C 199.165 130.014,198.400 130.450,198.400 130.558 C 198.400 130.740,201.990 129.283,202.367 128.948 C 202.799 128.564,201.633 128.893,200.100 129.589 M74.098 178.067 C 74.044 204.834,74.109 227.019,74.243 227.367 C 74.459 227.931,76.127 227.990,89.543 227.907 L 104.600 227.815 89.600 227.607 L 74.600 227.400 74.398 178.400 L 74.195 129.400 74.098 178.067 M108.400 130.200 C 110.226 130.903,110.945 130.893,109.400 130.186 C 108.740 129.883,107.930 129.642,107.600 129.648 C 107.270 129.655,107.630 129.903,108.400 130.200 M195.983 132.215 C 194.114 133.775,192.230 136.007,191.351 137.700 C 190.442 139.450,191.022 138.974,192.156 137.039 C 192.724 136.070,194.301 134.270,195.662 133.039 C 198.410 130.552,198.621 130.010,195.983 132.215 M227.482 132.163 C 228.407 132.973,229.821 134.393,230.624 135.318 C 231.446 136.265,231.731 136.475,231.276 135.800 C 230.430 134.545,227.971 132.138,226.600 131.223 C 226.160 130.929,226.557 131.352,227.482 132.163 M112.200 131.694 C 112.640 131.972,114.128 133.319,115.507 134.687 C 116.886 136.055,117.842 136.852,117.631 136.458 C 116.984 135.249,113.917 132.374,112.624 131.765 C 111.951 131.448,111.760 131.416,112.200 131.694 M142.493 135.600 C 142.493 136.370,142.575 136.685,142.676 136.300 C 142.776 135.915,142.776 135.285,142.676 134.900 C 142.575 134.515,142.493 134.830,142.493 135.600 M232.678 138.595 C 233.044 139.362,233.414 139.919,233.501 139.832 C 233.684 139.649,232.470 137.200,232.196 137.200 C 232.095 137.200,232.312 137.828,232.678 138.595 M141.415 141.415 C 141.261 142.654,141.217 143.750,141.319 143.852 C 141.420 143.954,141.630 143.023,141.785 141.785 C 141.939 140.546,141.983 139.450,141.881 139.348 C 141.780 139.246,141.570 140.177,141.415 141.415 M190.044 140.444 C 189.798 141.151,189.666 141.800,189.752 141.885 C 189.838 141.971,190.109 141.462,190.356 140.756 C 190.602 140.049,190.734 139.400,190.648 139.315 C 190.562 139.229,190.291 139.738,190.044 140.444 M233.647 140.400 C 233.636 140.510,233.983 141.770,234.417 143.200 C 234.951 144.958,235.129 145.286,234.969 144.213 C 234.767 142.866,233.703 139.797,233.647 140.400 M209.515 141.928 C 209.138 142.078,210.256 142.200,212.000 142.200 C 213.744 142.200,214.862 142.078,214.485 141.928 C 214.108 141.779,212.990 141.656,212.000 141.656 C 211.010 141.656,209.892 141.779,209.515 141.928 M168.893 143.200 C 168.893 143.970,168.975 144.285,169.076 143.900 C 169.176 143.515,169.176 142.885,169.076 142.500 C 168.975 142.115,168.893 142.430,168.893 143.200 M189.056 143.284 C 188.921 143.788,188.827 144.560,188.846 145.000 C 188.865 145.440,189.045 145.098,189.246 144.240 C 189.636 142.578,189.470 141.740,189.056 143.284 M90.267 143.067 C 89.655 143.678,89.970 168.277,90.596 168.797 C 91.363 169.433,99.061 169.180,100.200 168.480 C 100.905 168.048,100.857 168.025,99.800 168.295 C 99.140 168.463,96.800 168.600,94.600 168.600 L 90.600 168.600 90.494 155.900 L 90.389 143.200 94.968 143.200 C 99.953 143.200,101.179 143.494,102.999 145.125 L 104.197 146.200 103.199 145.048 C 101.518 143.110,91.724 141.609,90.267 143.067 M206.031 144.031 C 205.354 144.708,204.800 145.468,204.800 145.720 C 204.800 145.972,205.109 145.733,205.488 145.189 C 205.866 144.645,206.541 143.891,206.988 143.513 C 207.434 143.136,207.679 142.821,207.531 142.813 C 207.383 142.806,206.708 143.354,206.031 144.031 M216.400 142.922 C 216.400 142.992,216.963 143.579,217.650 144.225 C 218.525 145.048,218.747 145.148,218.391 144.559 C 217.951 143.833,216.400 142.557,216.400 142.922 M140.600 146.400 C 140.445 147.528,140.402 148.536,140.506 148.639 C 140.609 148.742,140.816 147.900,140.967 146.767 C 141.117 145.634,141.159 144.626,141.061 144.528 C 140.963 144.429,140.755 145.272,140.600 146.400 M219.473 148.000 C 219.604 148.990,219.776 149.875,219.856 149.967 C 220.157 150.314,219.928 147.764,219.590 147.000 C 219.353 146.466,219.314 146.798,219.473 148.000 M120.963 153.200 C 120.963 156.830,121.023 158.315,121.098 156.500 C 121.172 154.685,121.172 151.715,121.098 149.900 C 121.023 148.085,120.963 149.570,120.963 153.200 M204.190 178.200 C 204.190 195.140,204.240 202.012,204.300 193.470 C 204.360 184.929,204.360 171.069,204.300 162.670 C 204.240 154.272,204.190 161.260,204.190 178.200 M188.190 178.000 C 188.190 194.390,188.239 201.095,188.300 192.900 C 188.360 184.705,188.360 171.295,188.300 163.100 C 188.239 154.905,188.190 161.610,188.190 178.000 M153.852 149.700 C 153.461 151.161,153.615 151.882,154.087 150.800 L 154.524 149.800 154.815 151.000 C 155.001 151.771,155.120 151.914,155.147 151.400 C 155.205 150.303,154.773 148.800,154.400 148.800 C 154.231 148.800,153.985 149.205,153.852 149.700 M235.790 178.200 C 235.790 194.260,235.839 200.772,235.900 192.671 C 235.960 184.569,235.960 171.429,235.900 163.471 C 235.839 155.512,235.790 162.140,235.790 178.200 M105.358 155.800 C 105.358 158.880,105.421 160.087,105.497 158.482 C 105.573 156.878,105.573 154.358,105.496 152.882 C 105.419 151.407,105.357 152.720,105.358 155.800 M139.400 154.000 C 139.245 155.128,139.202 156.136,139.306 156.239 C 139.409 156.342,139.616 155.500,139.767 154.367 C 139.917 153.234,139.959 152.226,139.861 152.128 C 139.763 152.029,139.555 152.872,139.400 154.000 M153.293 153.600 C 153.293 154.370,153.375 154.685,153.476 154.300 C 153.576 153.915,153.576 153.285,153.476 152.900 C 153.375 152.515,153.293 152.830,153.293 153.600 M170.870 155.400 C 170.857 155.840,170.995 156.920,171.177 157.800 C 171.455 159.145,171.508 159.209,171.507 158.200 C 171.505 156.799,170.908 154.170,170.870 155.400 M152.893 156.400 C 152.893 157.170,152.975 157.485,153.076 157.100 C 153.176 156.715,153.176 156.085,153.076 155.700 C 152.975 155.315,152.893 155.630,152.893 156.400 M156.047 158.833 C 156.073 159.585,156.241 160.740,156.420 161.400 C 156.635 162.189,156.670 161.778,156.523 160.200 C 156.277 157.555,155.973 156.681,156.047 158.833 M138.200 161.600 C 138.045 162.728,138.002 163.736,138.106 163.839 C 138.209 163.942,138.416 163.100,138.567 161.967 C 138.717 160.834,138.759 159.826,138.661 159.728 C 138.563 159.629,138.355 160.472,138.200 161.600 M120.140 162.690 C 119.266 167.368,116.647 171.594,113.361 173.624 C 111.510 174.768,111.642 175.320,114.100 176.719 C 116.690 178.194,118.010 179.564,119.575 182.403 C 120.926 184.854,121.249 184.848,119.998 182.395 C 118.840 180.127,116.906 178.060,114.500 176.520 C 112.575 175.287,111.850 174.400,112.768 174.400 C 115.367 174.400,121.232 164.611,120.728 161.114 C 120.658 160.625,120.393 161.334,120.140 162.690 M152.093 161.600 C 152.093 162.370,152.175 162.685,152.276 162.300 C 152.376 161.915,152.376 161.285,152.276 160.900 C 152.175 160.515,152.093 160.830,152.093 161.600 M172.095 163.200 C 172.095 163.750,172.232 164.740,172.400 165.400 C 172.672 166.470,172.705 166.492,172.705 165.600 C 172.705 165.050,172.568 164.060,172.400 163.400 C 172.128 162.330,172.095 162.308,172.095 163.200 M104.000 164.800 C 103.720 165.475,102.931 166.485,102.246 167.046 C 101.561 167.606,101.362 167.887,101.804 167.670 C 103.108 167.029,105.166 164.232,104.686 163.753 C 104.588 163.655,104.279 164.126,104.000 164.800 M157.247 166.833 C 157.273 167.585,157.441 168.740,157.620 169.400 C 157.835 170.189,157.870 169.778,157.723 168.200 C 157.477 165.555,157.173 164.681,157.247 166.833 M150.893 169.600 C 150.893 170.370,150.975 170.685,151.076 170.300 C 151.176 169.915,151.176 169.285,151.076 168.900 C 150.975 168.515,150.893 168.830,150.893 169.600 M136.893 170.400 C 136.893 171.170,136.975 171.485,137.076 171.100 C 137.176 170.715,137.176 170.085,137.076 169.700 C 136.975 169.315,136.893 169.630,136.893 170.400 M158.493 175.000 C 158.494 175.660,158.632 176.740,158.800 177.400 C 159.223 179.063,159.242 177.426,158.823 175.400 C 158.545 174.055,158.492 173.991,158.493 175.000 M149.693 177.600 C 149.693 178.370,149.775 178.685,149.876 178.300 C 149.976 177.915,149.976 177.285,149.876 176.900 C 149.775 176.515,149.693 176.830,149.693 177.600 M134.893 182.800 C 134.893 183.570,134.975 183.885,135.076 183.500 C 135.176 183.115,135.176 182.485,135.076 182.100 C 134.975 181.715,134.893 182.030,134.893 182.800 M148.893 182.800 C 148.893 183.570,148.975 183.885,149.076 183.500 C 149.176 183.115,149.176 182.485,149.076 182.100 C 148.975 181.715,148.893 182.030,148.893 182.800 M159.647 182.833 C 159.673 183.585,159.841 184.740,160.020 185.400 C 160.235 186.189,160.270 185.778,160.123 184.200 C 159.877 181.555,159.573 180.681,159.647 182.833 M175.270 183.000 C 175.257 183.440,175.395 184.520,175.577 185.400 C 175.855 186.745,175.908 186.809,175.907 185.800 C 175.905 184.399,175.308 181.770,175.270 183.000 M90.267 183.467 C 89.618 184.115,89.973 213.504,90.633 213.757 C 90.981 213.891,93.276 213.964,95.733 213.920 L 100.200 213.839 95.400 213.620 L 90.600 213.400 90.495 198.513 L 90.390 183.625 95.095 183.499 L 99.800 183.372 95.167 183.286 C 92.618 183.239,90.413 183.320,90.267 183.467 M100.803 183.974 C 102.844 184.595,104.403 185.646,105.004 186.807 C 105.343 187.463,105.722 188.000,105.847 188.000 C 105.972 188.000,105.732 187.415,105.315 186.700 C 104.490 185.289,101.882 183.596,100.600 183.641 C 99.953 183.663,99.992 183.727,100.803 183.974 M148.493 185.600 C 148.493 186.370,148.575 186.685,148.676 186.300 C 148.776 185.915,148.776 185.285,148.676 184.900 C 148.575 184.515,148.493 184.830,148.493 185.600 M133.693 190.400 C 133.693 191.170,133.775 191.485,133.876 191.100 C 133.976 190.715,133.976 190.085,133.876 189.700 C 133.775 189.315,133.693 189.630,133.693 190.400 M147.693 190.800 C 147.693 191.570,147.775 191.885,147.876 191.500 C 147.976 191.115,147.976 190.485,147.876 190.100 C 147.775 189.715,147.693 190.030,147.693 190.800 M106.493 191.200 C 106.493 191.970,106.575 192.285,106.676 191.900 C 106.776 191.515,106.776 190.885,106.676 190.500 C 106.575 190.115,106.493 190.430,106.493 191.200 M122.528 193.600 C 122.528 195.030,122.601 195.615,122.689 194.900 C 122.778 194.185,122.778 193.015,122.689 192.300 C 122.601 191.585,122.528 192.170,122.528 193.600 M147.293 193.600 C 147.293 194.370,147.375 194.685,147.476 194.300 C 147.576 193.915,147.576 193.285,147.476 192.900 C 147.375 192.515,147.293 192.830,147.293 193.600 M106.964 199.400 C 106.963 203.140,107.023 204.724,107.097 202.920 C 107.171 201.115,107.172 198.055,107.098 196.120 C 107.025 194.184,106.964 195.660,106.964 199.400 M122.528 206.800 C 122.528 208.230,122.601 208.815,122.689 208.100 C 122.778 207.385,122.778 206.215,122.689 205.500 C 122.601 204.785,122.528 205.370,122.528 206.800 M178.869 205.200 C 178.856 205.750,178.995 206.920,179.177 207.800 C 179.389 208.826,179.516 209.041,179.531 208.400 C 179.544 207.850,179.405 206.680,179.223 205.800 C 179.011 204.774,178.884 204.559,178.869 205.200 M219.693 207.600 C 219.693 208.370,219.775 208.685,219.876 208.300 C 219.976 207.915,219.976 207.285,219.876 206.900 C 219.775 206.515,219.693 206.830,219.693 207.600 M235.293 209.200 C 235.293 209.970,235.375 210.285,235.476 209.900 C 235.576 209.515,235.576 208.885,235.476 208.500 C 235.375 208.115,235.293 208.430,235.293 209.200 M204.409 209.520 C 204.377 211.396,207.318 214.253,209.633 214.595 L 211.000 214.797 209.615 214.365 C 207.486 213.701,205.980 212.441,205.162 210.640 C 204.753 209.738,204.414 209.234,204.409 209.520 M219.021 210.260 C 218.869 210.863,218.083 211.982,217.273 212.746 C 216.458 213.514,216.188 213.927,216.669 213.670 C 218.154 212.876,220.070 209.936,219.485 209.351 C 219.381 209.248,219.172 209.656,219.021 210.260 M130.200 211.600 C 130.045 212.728,130.002 213.736,130.106 213.839 C 130.209 213.942,130.416 213.100,130.567 211.967 C 130.717 210.834,130.759 209.826,130.661 209.728 C 130.563 209.629,130.355 210.472,130.200 211.600 M145.300 209.865 C 145.025 209.976,144.800 210.254,144.800 210.482 C 144.800 210.757,144.980 210.749,145.331 210.457 C 145.673 210.174,148.997 209.974,154.631 209.900 L 163.400 209.784 154.600 209.723 C 149.760 209.690,145.575 209.754,145.300 209.865 M104.799 211.300 C 104.210 212.104,104.113 212.384,104.545 212.033 C 105.201 211.500,106.193 210.000,105.889 210.000 C 105.813 210.000,105.322 210.585,104.799 211.300 M180.070 213.000 C 180.057 213.440,180.195 214.520,180.377 215.400 C 180.655 216.745,180.708 216.809,180.707 215.800 C 180.705 214.399,180.108 211.770,180.070 213.000 M189.248 213.600 C 189.242 213.930,189.483 214.740,189.786 215.400 C 190.493 216.945,190.503 216.226,189.800 214.400 C 189.503 213.630,189.255 213.270,189.248 213.600 M118.796 219.078 C 118.028 220.298,116.590 221.941,115.600 222.728 C 113.163 224.666,112.770 225.086,114.200 224.222 C 116.416 222.882,120.918 217.585,120.335 217.002 C 120.256 216.923,119.564 217.857,118.796 219.078 M129.033 218.833 C 128.883 219.966,128.841 220.974,128.939 221.072 C 129.037 221.171,129.245 220.328,129.400 219.200 C 129.555 218.072,129.598 217.064,129.494 216.961 C 129.391 216.858,129.184 217.700,129.033 218.833 M190.405 217.022 C 190.399 217.558,192.696 221.200,193.040 221.200 C 193.182 221.200,193.111 220.974,192.882 220.698 C 192.653 220.423,192.003 219.388,191.438 218.398 C 190.872 217.409,190.407 216.790,190.405 217.022 M165.293 219.600 C 165.293 220.370,165.375 220.685,165.476 220.300 C 165.576 219.915,165.576 219.285,165.476 218.900 C 165.375 218.515,165.293 218.830,165.293 219.600 M231.852 219.500 C 231.190 220.780,228.332 223.853,226.600 225.148 C 225.657 225.852,225.612 225.941,226.386 225.562 C 228.351 224.601,233.749 218.400,232.621 218.400 C 232.511 218.400,232.165 218.895,231.852 219.500 M181.293 220.600 C 181.294 221.260,181.432 222.340,181.600 223.000 C 182.023 224.663,182.042 223.026,181.623 221.000 C 181.345 219.655,181.292 219.591,181.293 220.600 M194.493 223.028 C 195.314 223.903,196.574 224.943,197.293 225.338 L 198.600 226.057 197.400 225.129 C 196.740 224.619,195.480 223.579,194.600 222.819 L 193.000 221.437 194.493 223.028 M142.893 223.200 C 142.893 223.970,142.975 224.285,143.076 223.900 C 143.176 223.515,143.176 222.885,143.076 222.500 C 142.975 222.115,142.893 222.430,142.893 223.200 M108.400 226.600 C 107.630 226.897,107.270 227.145,107.600 227.152 C 107.930 227.158,108.740 226.917,109.400 226.614 C 110.945 225.907,110.226 225.897,108.400 226.600 M166.528 227.000 C 166.614 227.838,181.252 228.507,182.052 227.709 C 182.222 227.539,178.875 227.452,174.613 227.516 C 167.455 227.624,166.849 227.578,166.655 226.916 C 166.485 226.332,166.461 226.348,166.528 227.000 M127.834 227.343 C 128.102 228.043,141.716 228.382,142.139 227.700 C 142.241 227.535,139.265 227.453,135.526 227.519 C 130.709 227.603,128.560 227.499,128.154 227.162 C 127.690 226.777,127.629 226.811,127.834 227.343 M209.500 229.096 C 210.875 229.174,213.125 229.174,214.500 229.096 C 215.875 229.018,214.750 228.954,212.000 228.954 C 209.250 228.954,208.125 229.018,209.500 229.096 M266.020 238.813 C 262.859 239.474,260.577 241.593,259.450 244.914 C 258.474 247.789,258.488 271.742,259.467 274.774 C 262.260 283.421,276.025 283.348,278.601 274.672 C 279.482 271.705,279.473 247.866,278.590 244.892 C 277.148 240.036,272.023 237.558,266.020 238.813 M237.214 239.974 C 236.945 240.476,236.800 247.432,236.800 259.800 C 236.800 281.996,236.495 280.400,240.734 280.400 C 244.949 280.400,244.800 280.690,244.800 272.520 L 244.800 265.600 245.751 265.600 C 253.858 265.600,257.000 261.857,257.000 252.200 C 257.000 241.346,254.782 239.200,243.564 239.200 C 238.105 239.200,237.595 239.262,237.214 239.974 M274.051 240.319 C 275.854 241.261,276.385 241.812,277.397 243.791 L 278.600 246.144 278.600 259.772 L 278.600 273.400 277.512 275.616 C 274.233 282.293,263.585 282.327,260.465 275.671 L 259.400 273.400 259.400 259.772 L 259.400 246.144 260.603 243.791 C 262.253 240.565,264.750 239.200,269.000 239.200 C 271.408 239.200,272.277 239.393,274.051 240.319 M281.285 239.539 C 280.608 239.968,284.929 279.581,285.707 280.074 C 286.471 280.560,294.710 280.470,295.017 279.972 C 295.163 279.737,295.534 277.262,295.842 274.472 C 296.895 264.944,296.904 264.938,297.817 273.200 C 298.659 280.826,298.328 280.400,303.400 280.400 C 306.196 280.400,307.632 280.241,307.912 279.900 C 308.554 279.116,312.801 240.302,312.310 239.700 C 311.839 239.123,307.306 239.019,306.443 239.565 C 306.003 239.844,303.813 257.305,303.605 262.200 C 303.544 263.639,302.837 260.955,302.615 258.444 C 300.867 238.596,301.043 239.200,297.000 239.200 C 293.483 239.200,293.365 239.319,293.031 243.200 C 292.662 247.486,291.604 258.285,291.351 260.348 C 290.952 263.601,290.501 261.433,289.407 251.000 C 288.807 245.280,288.149 240.285,287.944 239.900 C 287.542 239.143,282.352 238.862,281.285 239.539 M314.900 239.461 C 314.509 239.622,314.400 244.075,314.400 259.826 L 314.400 279.985 315.300 280.206 C 315.795 280.327,319.890 280.376,324.400 280.313 L 332.600 280.200 332.600 277.000 L 332.600 273.800 328.200 273.701 C 321.429 273.550,322.000 274.053,322.000 268.235 C 322.000 262.449,321.691 262.800,326.790 262.800 C 330.835 262.800,330.800 262.831,330.800 259.216 C 330.800 256.228,330.550 256.056,325.978 255.916 L 322.200 255.800 322.087 251.100 L 321.975 246.400 326.711 246.400 C 332.785 246.400,332.877 246.339,332.719 242.391 L 332.600 239.400 324.000 239.328 C 319.270 239.288,315.175 239.348,314.900 239.461 M336.480 239.680 C 335.717 240.443,335.796 279.333,336.562 279.969 C 336.915 280.261,338.293 280.391,340.262 280.318 L 343.400 280.200 343.508 272.542 C 343.630 263.980,343.701 263.758,346.181 264.223 C 348.345 264.629,348.571 265.378,348.798 272.915 C 349.035 280.779,348.829 280.448,353.400 280.302 L 356.600 280.200 356.477 273.400 C 356.341 265.911,355.829 263.208,354.170 261.237 L 353.146 260.020 354.353 258.510 C 358.587 253.212,356.474 241.727,350.917 239.834 C 348.571 239.034,337.246 238.914,336.480 239.680 M251.600 240.565 C 255.588 242.649,256.200 244.195,256.200 252.200 C 256.200 261.768,254.867 263.689,247.600 264.594 L 244.200 265.018 244.091 272.303 C 243.966 280.645,244.226 280.165,239.979 279.924 L 237.800 279.800 237.696 260.026 C 237.615 244.482,237.700 240.178,238.096 239.908 C 239.094 239.228,250.061 239.761,251.600 240.565 M287.104 239.932 C 287.590 240.241,287.874 242.364,289.385 257.000 C 290.301 265.878,290.489 267.200,290.837 267.200 C 291.332 267.200,291.506 265.734,293.021 248.800 C 293.877 239.231,293.717 239.600,297.001 239.600 C 300.331 239.600,300.046 238.753,301.378 252.600 C 303.343 273.036,303.268 273.170,305.991 244.474 C 306.412 240.036,306.696 239.598,309.149 239.606 C 312.217 239.616,312.188 239.537,311.444 245.854 C 311.084 248.904,310.611 253.020,310.393 255.000 C 310.174 256.980,309.738 260.760,309.424 263.400 C 309.109 266.040,308.649 270.180,308.400 272.600 C 308.152 275.020,307.818 277.630,307.659 278.400 L 307.369 279.800 303.482 279.915 C 298.828 280.052,299.064 280.338,298.424 273.800 C 297.700 266.415,297.096 262.343,296.775 262.680 C 296.506 262.962,295.778 268.509,294.975 276.400 C 294.614 279.952,294.550 280.000,290.200 280.000 C 287.720 280.000,286.365 279.835,286.096 279.500 C 285.875 279.225,284.765 270.540,283.629 260.200 C 282.494 249.860,281.497 241.197,281.413 240.949 C 281.023 239.783,285.585 238.968,287.104 239.932 M331.972 240.166 C 332.249 240.500,332.392 241.690,332.321 243.066 L 332.200 245.400 327.225 245.513 C 320.961 245.655,321.199 245.441,321.206 250.949 C 321.214 256.591,321.010 256.345,325.814 256.484 L 329.800 256.600 329.800 259.400 L 329.800 262.200 325.814 262.316 C 320.987 262.455,321.212 262.167,321.212 268.200 C 321.212 274.350,320.821 273.953,327.016 274.087 L 332.200 274.200 332.321 276.764 C 332.405 278.544,332.282 279.428,331.921 279.657 C 331.057 280.205,315.840 280.080,315.280 279.520 C 314.589 278.829,314.589 240.771,315.280 240.080 C 316.031 239.329,331.343 239.408,331.972 240.166 M351.200 240.561 C 356.171 243.162,357.513 253.391,353.551 258.477 C 352.144 260.282,352.144 260.327,353.580 261.735 C 355.157 263.282,355.536 265.356,355.680 273.200 L 355.800 279.800 353.200 279.903 C 349.318 280.057,349.419 280.236,349.283 272.915 C 349.128 264.540,348.585 263.376,344.973 263.671 L 343.400 263.800 343.200 271.400 C 343.090 275.580,342.854 279.225,342.676 279.500 C 342.106 280.382,337.313 280.158,336.814 279.226 C 336.168 278.020,336.250 240.714,336.900 240.047 C 337.730 239.195,349.390 239.614,351.200 240.561 M266.562 246.042 C 265.846 246.834,265.800 247.661,265.800 259.877 L 265.800 272.869 266.922 273.835 C 268.299 275.019,269.560 275.061,270.946 273.971 L 272.000 273.142 272.000 259.833 C 272.000 247.447,271.949 246.478,271.269 245.862 C 270.194 244.890,267.512 244.992,266.562 246.042 M244.267 245.867 C 244.120 246.013,244.000 248.983,244.000 252.467 L 244.000 258.800 246.171 258.800 C 249.643 258.800,250.096 257.941,249.931 251.674 C 249.816 247.333,249.706 246.665,249.024 246.167 C 248.239 245.594,244.759 245.374,244.267 245.867 M270.977 246.489 C 271.509 247.248,271.600 249.229,271.600 260.060 C 271.600 274.136,271.625 274.000,268.994 274.000 C 266.447 274.000,266.400 273.741,266.400 259.800 C 266.400 245.854,266.446 245.600,269.000 245.600 C 269.946 245.600,270.542 245.868,270.977 246.489 M343.467 245.867 C 343.320 246.013,343.200 248.713,343.200 251.867 L 343.200 257.600 345.156 257.600 C 348.473 257.600,348.974 256.886,349.134 251.933 C 349.303 246.685,348.704 245.600,345.638 245.600 C 344.590 245.600,343.613 245.720,343.467 245.867 M249.161 247.660 C 249.722 249.268,249.731 255.106,249.175 256.700 C 248.740 257.949,247.897 258.385,245.900 258.395 L 244.800 258.400 244.800 252.400 L 244.800 246.400 246.761 246.400 C 248.601 246.400,248.749 246.478,249.161 247.660 M348.028 247.034 C 348.669 247.806,348.993 251.716,348.622 254.191 C 348.317 256.226,346.874 257.355,344.873 257.124 L 343.800 257.000 343.687 252.223 C 343.624 249.596,343.664 247.211,343.774 246.923 C 344.069 246.156,347.370 246.241,348.028 247.034 " stroke="none" fill="#7a5b4d" fill-rule="evenodd"></path></g></svg>